<svg width="343" height="217" viewBox="0 0 343 217" fill="none" xmlns="http://www.w3.org/2000/svg">
<path d="M50.3664 182.857C50.1699 182.462 50.0226 182.166 49.9243 181.968C49.8261 181.771 49.6787 181.425 49.4822 180.931C49.384 180.733 49.2858 180.486 49.1875 180.19C49.0893 179.795 48.9911 179.499 48.8928 179.301C48.7946 179.005 48.5981 178.56 48.3034 177.968C48.0087 177.276 47.714 176.585 47.4192 175.893C47.2228 175.103 46.9772 174.362 46.6825 173.671C46.486 172.98 46.3877 172.486 46.3877 172.189C46.2895 171.992 46.1421 171.695 45.9457 171.3C45.8474 170.905 45.7492 170.609 45.651 170.411C45.3562 169.522 45.1598 169.078 45.0615 169.078C45.0615 169.078 44.9142 169.029 44.6195 168.93C44.423 169.127 44.3247 169.374 44.3247 169.671C44.3247 169.868 44.3247 170.115 44.3247 170.411L44.03 175.004C43.8336 175.992 43.7353 176.98 43.7353 177.968C43.8336 178.857 43.8336 179.746 43.7353 180.635L43.4406 186.709L44.03 195.006C44.1283 195.5 44.1774 196.192 44.1774 197.081C44.2756 197.871 44.3247 198.71 44.3247 199.599C44.423 200.488 44.4721 201.377 44.4721 202.266C44.4721 203.057 44.423 203.649 44.3247 204.044C44.1283 204.933 43.9809 205.625 43.8827 206.119C43.8827 206.514 43.8827 206.81 43.8827 207.007C43.8827 207.205 43.8827 207.403 43.8827 207.6C43.9809 207.798 44.03 208.143 44.03 208.637C44.03 208.934 43.9809 209.23 43.8827 209.526C43.8827 209.724 43.8827 209.921 43.8827 210.119C43.8827 210.613 43.9318 211.107 44.03 211.601C44.1283 211.996 44.1283 212.489 44.03 213.082C44.03 213.28 43.9318 213.774 43.7353 214.564C43.6371 215.255 43.5388 215.65 43.4406 215.749C42.9494 216.144 42.4091 216.342 41.8197 216.342C41.2302 216.243 40.6899 216.194 40.1987 216.194C39.2164 216.095 38.6269 216.144 38.4304 216.342C38.3322 216.44 37.9393 216.589 37.2516 216.786C37.0551 216.786 36.5148 216.786 35.6307 216.786C34.7465 216.687 34.1571 216.638 33.8624 216.638C33.0765 216.638 32.5362 216.687 32.2414 216.786C31.9467 216.885 31.4064 216.836 30.6205 216.638C29.8346 216.44 29.2452 216.44 28.8522 216.638C28.4593 216.737 27.919 216.737 27.2313 216.638C26.9366 216.638 26.4454 216.687 25.7577 216.786C25.1683 216.885 24.5297 216.934 23.8421 216.934C23.2526 216.934 22.6632 216.885 22.0738 216.786C21.5826 216.589 21.2388 216.243 21.0423 215.749C20.8458 215.354 20.7476 214.86 20.7476 214.267C20.8458 213.576 20.8458 212.983 20.7476 212.489C20.4529 209.921 20.3546 207.501 20.4529 205.23C20.5511 202.859 20.6493 200.39 20.7476 197.821C20.7476 195.55 20.6985 193.327 20.6002 191.154C20.6002 188.882 20.6985 186.61 20.8949 184.339C20.9932 183.252 21.0423 182.511 21.0423 182.116C21.0423 181.622 21.0423 181.227 21.0423 180.931C21.0423 180.536 20.9932 180.141 20.8949 179.746C20.8949 179.252 20.8458 178.412 20.7476 177.227C20.7476 176.634 20.7967 176.091 20.8949 175.597C20.9932 175.004 20.9932 174.461 20.8949 173.967C20.6985 173.078 20.6493 172.486 20.7476 172.189C20.8458 171.893 20.944 171.35 21.0423 170.56C21.1405 169.967 21.0914 169.374 20.8949 168.782C20.7967 168.09 20.7967 167.498 20.8949 167.004C20.8949 166.707 20.944 166.46 21.0423 166.263C21.1405 166.065 21.1405 165.769 21.0423 165.374C21.0423 164.979 20.9932 164.732 20.8949 164.633C20.8949 164.436 20.944 164.09 21.0423 163.596C21.2388 162.608 21.2879 161.522 21.1896 160.336C21.0914 159.151 21.0423 158.065 21.0423 157.077C21.0423 156.682 21.0423 156.336 21.0423 156.04C21.1405 155.743 21.1405 155.496 21.0423 155.299C21.0423 155.003 21.0423 154.706 21.0423 154.41C21.0423 154.015 20.9932 153.669 20.8949 153.373C20.8949 153.274 20.8949 152.928 20.8949 152.336C20.9932 151.644 21.0914 150.953 21.1896 150.261C21.2879 149.471 21.337 148.73 21.337 148.039C21.337 147.348 21.337 146.854 21.337 146.557V143.298C21.2388 142.112 21.2879 140.977 21.4844 139.89C21.6808 138.705 21.8282 137.519 21.9264 136.334C21.9264 135.544 21.9264 134.507 21.9264 133.223C21.9264 131.939 21.9264 130.605 21.9264 129.222C21.9264 127.839 21.8773 126.555 21.7791 125.37C21.7791 124.086 21.73 123.148 21.6317 122.555C21.4352 121.469 21.3861 120.382 21.4844 119.295C21.5826 118.209 21.73 117.122 21.9264 116.036C21.9264 115.937 22.0247 115.394 22.2211 114.406C22.2211 113.912 22.2703 113.418 22.3685 112.924C22.565 112.628 22.9579 112.332 23.5474 112.036C24.1368 111.739 24.5789 111.542 24.8736 111.443C25.2665 111.344 25.7086 111.393 26.1998 111.591C26.7892 111.789 27.4278 111.838 28.1154 111.739C28.4102 111.739 28.7049 111.69 28.9996 111.591C29.2943 111.492 29.589 111.443 29.8837 111.443C30.0802 111.443 30.2767 111.492 30.4732 111.591C30.7679 111.591 31.0135 111.542 31.2099 111.443C32.5853 111.245 33.8133 111.245 34.8939 111.443C35.9745 111.542 37.1042 111.591 38.2831 111.591C39.2655 111.591 40.0023 111.542 40.4934 111.443C41.0829 111.245 41.525 111.147 41.8197 111.147C42.2126 111.147 42.5073 111.295 42.7038 111.591C42.9985 111.789 43.2932 112.282 43.588 113.073C43.7844 113.369 43.8827 113.567 43.8827 113.665C43.9809 113.764 44.0791 114.011 44.1774 114.406C44.2756 114.9 44.3247 115.246 44.3247 115.443C44.423 115.542 44.4721 115.641 44.4721 115.74C44.5703 115.838 44.6686 115.987 44.7668 116.184C44.8651 116.283 45.0124 116.629 45.2089 117.221C45.3071 117.419 45.4054 117.616 45.5036 117.814C45.6018 118.011 45.7492 118.209 45.9457 118.406C46.1421 118.802 46.3386 119.246 46.5351 119.74C46.8298 120.135 47.0754 120.58 47.2719 121.073C47.7631 121.962 48.0087 122.555 48.0087 122.851C48.1069 123.148 48.2543 123.444 48.4507 123.74C48.8437 124.333 49.0893 124.777 49.1875 125.074C49.2858 125.37 49.4331 125.815 49.6296 126.407C49.8261 126.704 49.9243 126.901 49.9243 127C50.0226 127.099 50.1208 127.346 50.219 127.741C50.612 128.827 50.8576 129.42 50.9558 129.519C51.0541 129.519 51.2014 129.864 51.3979 130.556L52.7241 135.001C53.0188 135.89 53.4118 136.828 53.903 137.816C54.3942 138.705 54.738 139.643 54.9345 140.631C55.1309 141.125 55.3274 141.569 55.5239 141.964C55.8186 142.359 56.0642 142.804 56.2607 143.298C56.4572 143.594 56.5063 143.841 56.408 144.039C56.408 144.137 56.5063 144.384 56.7028 144.779C56.9975 145.372 57.1939 145.817 57.2922 146.113C57.4887 146.409 57.5869 146.705 57.5869 147.002C57.6851 147.199 57.7834 147.446 57.8816 147.743C57.9799 148.039 58.1272 148.434 58.3237 148.928C58.8149 149.916 59.2569 150.805 59.6499 151.595C60.0429 152.286 60.4849 153.126 60.9761 154.114C61.1726 154.509 61.3691 154.953 61.5655 155.447C61.762 155.941 61.9585 156.336 62.155 156.632L65.9863 164.633C66.1827 165.127 66.3792 165.621 66.5757 166.115C66.7722 166.51 67.116 166.707 67.6072 166.707C67.7054 166.609 67.9019 166.263 68.1966 165.67C68.5896 164.979 68.9334 164.238 69.2281 163.448C69.6211 162.559 69.9649 161.769 70.2596 161.077C70.6526 160.386 70.8982 159.941 70.9964 159.744C71.4876 158.46 71.9788 157.274 72.47 156.188C73.0594 155.101 73.6488 153.965 74.2383 152.78C74.6312 152.286 74.9259 151.743 75.1224 151.15C75.4171 150.459 75.7118 149.866 76.0066 149.372C76.1048 149.076 76.2522 148.632 76.4486 148.039C76.7434 147.348 77.0381 146.656 77.3328 145.965C77.6275 145.174 77.9222 144.434 78.2169 143.742C78.5116 142.952 78.7572 142.409 78.9537 142.112C79.3467 141.421 79.5923 140.828 79.6905 140.334C79.7887 139.742 79.9852 139.149 80.2799 138.557C80.7711 137.569 81.2623 136.334 81.7535 134.852C82.3429 133.371 82.785 132.087 83.0797 131C83.178 130.605 83.2762 130.309 83.3744 130.111C83.4727 129.815 83.62 129.519 83.8165 129.222C84.013 128.728 84.2095 127.988 84.4059 127C84.7006 126.012 85.241 124.975 86.0269 123.888C86.3216 123.493 86.4689 123.197 86.4689 123C86.4689 122.802 86.5672 122.456 86.7636 121.962C86.9601 121.666 87.2548 121.123 87.6478 120.333L88.5319 118.555C88.7284 118.258 88.8758 118.061 88.974 117.962C89.0722 117.764 89.2196 117.419 89.4161 116.925C89.6126 116.431 89.7599 116.135 89.8582 116.036C89.9564 115.937 90.0546 115.69 90.1529 115.295C90.3493 114.801 90.4476 114.456 90.4476 114.258C90.4476 114.06 90.5949 113.715 90.8896 113.221C91.1844 112.628 91.43 112.134 91.6264 111.739C91.9212 111.245 92.6088 111.147 93.6894 111.443C94.1806 111.542 94.8683 111.591 95.7524 111.591C96.7348 111.591 97.4716 111.591 97.9628 111.591C99.0434 111.492 99.8293 111.443 100.321 111.443C100.812 111.443 101.254 111.443 101.647 111.443C102.04 111.443 102.433 111.443 102.826 111.443C103.219 111.443 103.808 111.443 104.594 111.443C104.889 111.443 105.232 111.492 105.625 111.591C106.018 111.69 106.411 111.739 106.804 111.739C107.295 111.838 107.639 111.887 107.836 111.887C108.032 111.789 108.376 111.64 108.867 111.443C109.457 111.245 109.801 111.245 109.899 111.443C109.997 111.542 110.292 111.69 110.783 111.887C111.372 112.184 111.765 112.431 111.962 112.628C112.158 112.727 112.256 112.875 112.256 113.073C112.355 113.27 112.355 113.517 112.256 113.813C112.256 114.11 112.306 114.505 112.404 114.999C112.6 115.591 112.699 116.332 112.699 117.221C112.797 118.011 112.944 118.752 113.141 119.444C113.239 120.135 113.239 120.876 113.141 121.666C113.042 122.357 112.944 123 112.846 123.592L112.551 132.926C112.551 133.42 112.6 133.766 112.699 133.964C112.797 134.161 112.797 134.507 112.699 135.001C112.502 136.087 112.6 137.421 112.993 139.001C113.386 140.483 113.484 142.112 113.288 143.89V150.41C113.288 150.805 113.337 151.15 113.435 151.447C113.534 151.743 113.583 152.138 113.583 152.632C113.583 153.126 113.583 153.521 113.583 153.817C113.583 154.114 113.534 154.509 113.435 155.003C113.435 155.496 113.435 155.892 113.435 156.188C113.534 156.484 113.583 156.879 113.583 157.373L113.435 159.447C113.435 160.04 113.386 160.83 113.288 161.818C113.288 162.707 113.386 163.448 113.583 164.04C113.583 164.534 113.534 164.929 113.435 165.226C113.337 165.423 113.386 165.769 113.583 166.263C113.779 167.053 113.779 167.794 113.583 168.485C113.484 169.177 113.484 170.016 113.583 171.004C113.681 171.498 113.73 171.893 113.73 172.189C113.828 172.387 113.828 172.733 113.73 173.227C113.73 173.72 113.681 174.115 113.583 174.412C113.583 174.708 113.681 175.103 113.877 175.597C113.877 175.893 113.828 176.338 113.73 176.931C113.73 177.523 113.681 178.215 113.583 179.005C113.583 179.696 113.534 180.437 113.435 181.227C113.435 181.919 113.484 182.462 113.583 182.857C113.877 184.931 113.927 186.808 113.73 188.487C113.632 190.166 113.681 191.401 113.877 192.191V194.414C113.779 194.908 113.73 195.303 113.73 195.599C113.828 195.895 113.877 196.29 113.877 196.784C113.877 197.179 113.877 197.871 113.877 198.859C113.976 199.748 114.025 200.686 114.025 201.674C114.123 202.661 114.172 203.649 114.172 204.637C114.172 205.526 114.123 206.168 114.025 206.563C113.927 207.353 113.877 208.242 113.877 209.23C113.976 210.119 113.976 210.958 113.877 211.749C113.779 212.539 113.73 213.428 113.73 214.416C113.73 215.305 113.583 215.897 113.288 216.194C112.502 216.885 111.52 217.132 110.341 216.934C109.162 216.737 108.278 216.638 107.688 216.638C107.492 216.638 107.295 216.687 107.099 216.786C107.001 216.786 106.853 216.786 106.657 216.786C106.067 216.687 105.675 216.589 105.478 216.49C105.282 216.391 104.839 216.44 104.152 216.638C103.268 216.836 102.531 216.885 101.941 216.786C101.352 216.687 100.615 216.638 99.7311 216.638C99.4364 216.638 98.9943 216.687 98.4049 216.786C97.9137 216.786 97.5698 216.786 97.3734 216.786C97.0787 216.687 96.7839 216.589 96.4892 216.49C96.1945 216.292 95.8507 216.194 95.4577 216.194C94.7701 216.095 93.9842 216.095 93.1 216.194C92.3141 216.292 91.6264 216.144 91.037 215.749C91.037 215.65 90.9388 215.206 90.7423 214.416C90.6441 213.625 90.5949 213.132 90.5949 212.934V206.711C90.3985 205.328 90.2511 204.341 90.1529 203.748C90.0546 203.155 90.0055 202.661 90.0055 202.266C90.0055 201.772 90.0055 201.229 90.0055 200.637C90.1037 199.945 90.202 198.859 90.3002 197.377C90.3985 196.883 90.4476 196.389 90.4476 195.895C90.5458 195.401 90.6441 194.957 90.7423 194.562C90.7423 194.167 90.7423 193.772 90.7423 193.377C90.7423 192.883 90.7914 192.389 90.8896 191.895C91.0861 189.722 91.1353 187.746 91.037 185.968C91.037 184.092 90.9388 182.067 90.7423 179.894C90.6441 178.313 90.5458 176.338 90.4476 173.967C90.3493 171.498 90.1529 169.572 89.8582 168.189C89.367 168.387 89.0722 168.782 88.974 169.374C88.8758 169.868 88.7775 170.362 88.6793 170.856L84.7006 181.968C84.4059 182.462 84.1603 182.857 83.9639 183.153C83.7674 183.351 83.5709 183.795 83.3744 184.487C83.2762 184.981 83.1288 185.475 82.9324 185.968C82.8341 186.364 82.6868 186.808 82.4903 187.302C82.3921 187.499 82.2938 187.697 82.1956 187.895C82.0973 188.092 81.95 188.339 81.7535 188.635L81.3114 189.969C81.1149 190.364 80.8694 190.759 80.5746 191.154C80.3782 191.549 80.1817 191.994 79.9852 192.488L77.6275 197.525C77.431 198.315 77.2345 198.809 77.0381 199.007C76.8416 199.204 76.6451 199.599 76.4486 200.192C76.2522 200.785 76.1048 201.279 76.0066 201.674C75.8101 201.97 75.6627 202.168 75.5645 202.266C75.5645 202.365 75.5154 202.563 75.4171 202.859C75.1224 203.649 74.7786 204.39 74.3856 205.081C73.9927 205.773 73.7471 206.365 73.6488 206.859C73.4524 207.156 73.305 207.353 73.2068 207.452C73.2068 207.452 73.1085 207.6 72.9121 207.896C72.8138 208.193 72.7647 208.39 72.7647 208.489C72.7647 208.588 72.6665 208.785 72.47 209.082C72.3718 209.279 72.2735 209.477 72.1753 209.674C72.077 209.872 71.9788 210.069 71.8806 210.267C71.3894 211.551 70.9964 212.588 70.7017 213.378C70.407 214.169 70.0632 214.761 69.6702 215.156C69.2772 215.552 68.8352 215.798 68.344 215.897C67.8528 215.996 67.116 215.996 66.1336 215.897C65.6424 215.798 65.3477 215.749 65.2495 215.749C65.2495 215.65 65.1512 215.453 64.9548 215.156C64.7583 214.86 64.6109 214.712 64.5127 214.712C64.4145 214.613 64.3162 214.416 64.218 214.119C63.9233 213.033 63.5303 212.094 63.0391 211.304C62.6462 210.514 62.3515 209.625 62.155 208.637C61.9585 208.143 61.7129 207.748 61.4182 207.452C61.2217 207.156 61.0252 206.711 60.8288 206.119C60.7305 205.625 60.5832 205.18 60.3867 204.785C60.2885 204.291 60.1411 203.797 59.9446 203.303C59.6499 202.513 59.2569 201.723 58.7658 200.933C58.2746 200.044 57.8325 199.155 57.4395 198.266C57.2431 197.772 57.0466 197.328 56.8501 196.932C56.6536 196.537 56.4572 196.093 56.2607 195.599C55.966 194.809 55.573 193.969 55.0818 193.08C54.7871 192.389 54.4924 191.648 54.1977 190.858C54.0012 189.969 53.51 188.981 52.7241 187.895C52.5276 187.697 52.1838 187.055 51.6926 185.968C51.2014 184.882 50.9067 184.24 50.8085 184.042C50.7102 183.845 50.6611 183.647 50.6611 183.45C50.6611 183.252 50.5629 183.055 50.3664 182.857Z" fill="black"/>
<path d="M169.988 134.445C169.889 133.558 169.641 132.375 169.244 130.897C168.847 129.32 168.45 128.187 168.053 127.497C166.762 125.526 165.521 124.196 164.33 123.506C163.238 122.816 161.55 122.225 159.267 121.732C157.381 121.24 155.842 121.24 154.651 121.732C153.46 122.126 152.169 122.964 150.78 124.245C148.596 126.216 147.007 128.581 146.015 131.34C145.717 132.326 145.469 133.114 145.27 133.705C145.072 134.198 144.923 134.691 144.823 135.184C144.724 135.578 144.625 136.021 144.526 136.514C144.426 137.007 144.277 137.647 144.079 138.436C143.98 138.83 143.831 139.175 143.632 139.47C143.533 139.766 143.434 140.16 143.334 140.653C143.235 141.146 143.136 141.885 143.037 142.87C142.937 143.757 142.888 144.693 142.888 145.679C142.888 146.664 142.888 147.65 142.888 148.635C142.888 149.522 142.888 150.261 142.888 150.852L143.037 158.834C143.037 159.327 142.987 159.771 142.888 160.165C142.888 160.559 142.888 160.953 142.888 161.347C142.888 162.727 142.888 164.501 142.888 166.669C142.987 168.738 143.185 170.413 143.483 171.694C143.781 173.074 143.98 174.06 144.079 174.651C144.277 175.242 144.476 175.784 144.674 176.277C144.873 176.671 145.121 177.114 145.419 177.607C145.816 178.1 146.362 178.938 147.057 180.12C147.553 180.81 147.95 181.401 148.248 181.894C148.645 182.288 149.241 182.732 150.035 183.224C150.432 183.52 151.028 183.914 151.822 184.407C152.715 184.801 153.41 185.097 153.907 185.294C154.899 185.491 155.594 185.688 155.991 185.885C156.488 185.984 157.282 185.786 158.374 185.294C158.969 184.998 159.565 184.653 160.161 184.259C160.756 183.766 161.352 183.323 161.947 182.929C162.345 182.732 162.742 182.337 163.139 181.746C163.635 181.056 164.082 180.317 164.479 179.529C164.876 178.74 165.223 178.001 165.521 177.312C165.918 176.523 166.216 175.932 166.415 175.538C166.712 174.749 167.01 174.06 167.308 173.468C167.606 172.877 167.904 172.138 168.202 171.251C168.4 170.463 168.599 169.674 168.797 168.886C168.996 168.098 169.194 167.309 169.393 166.521C169.492 166.028 169.542 165.585 169.542 165.191C169.542 164.698 169.641 164.205 169.839 163.712C169.939 163.22 169.988 162.825 169.988 162.53C170.088 162.234 170.187 161.84 170.286 161.347C170.286 160.263 170.336 159.327 170.435 158.539C170.534 157.75 170.584 156.814 170.584 155.73C170.584 154.843 170.534 153.956 170.435 153.07C170.336 152.183 170.286 151.246 170.286 150.261V139.618C170.286 138.731 170.237 137.844 170.137 136.957C170.038 136.071 169.988 135.233 169.988 134.445ZM157.331 101.333C160.707 101.432 163.635 101.925 166.117 102.812C168.599 103.699 171.229 104.98 174.009 106.655C174.902 107.246 175.945 108.084 177.136 109.168C178.327 110.153 179.32 111.04 180.114 111.828C181.206 112.912 182.05 113.898 182.645 114.785C183.34 115.672 184.085 116.756 184.879 118.037C186.566 120.5 187.807 123.26 188.602 126.315C189.495 129.369 189.942 132.326 189.942 135.184C189.942 136.957 189.991 138.731 190.091 140.505C190.289 142.279 190.339 144.053 190.239 145.826C190.239 147.502 190.19 149.078 190.091 150.557C190.091 152.035 190.19 153.612 190.388 155.287C190.587 157.159 190.587 158.834 190.388 160.313C190.289 161.692 190.091 163.318 189.793 165.191C189.594 166.767 189.396 168.295 189.197 169.773C188.999 171.153 188.701 172.631 188.304 174.207C187.708 176.77 186.864 179.578 185.772 182.633C184.78 185.688 183.588 188.299 182.199 190.467C181.404 191.65 180.71 192.832 180.114 194.015C179.618 195.197 178.823 196.331 177.731 197.415C177.533 197.71 177.136 198.105 176.54 198.597C176.044 198.991 175.448 199.484 174.753 200.075C174.158 200.568 173.562 201.061 172.966 201.554C172.371 201.948 171.924 202.243 171.626 202.441C170.137 203.327 168.499 204.116 166.712 204.806C165.025 205.495 163.238 206.087 161.352 206.579C159.565 206.974 157.729 207.171 155.842 207.171C154.056 207.171 152.318 206.875 150.631 206.284C149.539 205.89 148.546 205.594 147.653 205.397C146.858 205.2 146.015 204.953 145.121 204.658C144.327 204.362 143.483 203.968 142.59 203.475C141.696 202.884 140.654 202.046 139.463 200.962C138.966 200.47 138.42 200.026 137.825 199.632C137.328 199.238 136.832 198.794 136.336 198.302C135.839 197.809 135.393 197.365 134.996 196.971C134.599 196.479 134.152 195.986 133.655 195.493C132.564 194.409 131.67 193.374 130.975 192.389C130.28 191.403 129.585 190.319 128.891 189.137C128.593 188.546 128.245 187.954 127.848 187.363C127.451 186.772 127.104 186.131 126.806 185.442C125.912 183.372 125.168 181.253 124.572 179.085C124.076 176.917 123.629 174.7 123.232 172.434C122.636 169.379 122.239 166.275 122.041 163.121C121.942 159.869 121.842 156.666 121.743 153.513C121.644 147.009 122.239 141.047 123.53 135.627C124.82 130.109 126.905 124.442 129.784 118.628C130.975 116.263 132.464 114.046 134.251 111.976C136.038 109.808 137.974 107.985 140.058 106.507C142.838 104.536 145.568 103.157 148.248 102.368C150.928 101.58 153.956 101.235 157.331 101.333Z" fill="black"/>
<path d="M242.572 127.12C242.473 126.227 242.225 125.036 241.828 123.547C241.431 121.959 241.034 120.818 240.637 120.123C239.346 118.138 238.105 116.798 236.914 116.104C235.822 115.409 234.134 114.813 231.851 114.317C229.965 113.821 228.426 113.821 227.235 114.317C226.044 114.714 224.753 115.558 223.364 116.848C221.18 118.833 219.591 121.215 218.599 123.994C218.301 124.986 218.053 125.78 217.854 126.376C217.656 126.872 217.507 127.368 217.407 127.865C217.308 128.262 217.209 128.708 217.11 129.204C217.01 129.701 216.861 130.346 216.663 131.14C216.564 131.537 216.415 131.884 216.216 132.182C216.117 132.48 216.018 132.877 215.918 133.373C215.819 133.869 215.72 134.614 215.62 135.606C215.521 136.499 215.472 137.442 215.472 138.435C215.472 139.427 215.472 140.42 215.472 141.412C215.472 142.305 215.472 143.05 215.472 143.645L215.62 151.684C215.62 152.181 215.571 152.627 215.472 153.024C215.472 153.421 215.472 153.818 215.472 154.215C215.472 155.605 215.472 157.391 215.472 159.575C215.571 161.659 215.769 163.346 216.067 164.636C216.365 166.026 216.564 167.018 216.663 167.614C216.861 168.209 217.06 168.755 217.258 169.251C217.457 169.648 217.705 170.095 218.003 170.591C218.4 171.087 218.946 171.931 219.641 173.122C220.137 173.817 220.534 174.412 220.832 174.909C221.229 175.306 221.825 175.752 222.619 176.248C223.016 176.546 223.612 176.943 224.406 177.439C225.299 177.836 225.994 178.134 226.491 178.333C227.483 178.531 228.178 178.73 228.575 178.928C229.072 179.027 229.866 178.829 230.958 178.333C231.553 178.035 232.149 177.687 232.745 177.291C233.34 176.794 233.936 176.348 234.531 175.951C234.929 175.752 235.326 175.355 235.723 174.76C236.219 174.065 236.666 173.321 237.063 172.527C237.46 171.733 237.807 170.988 238.105 170.293C238.502 169.499 238.8 168.904 238.999 168.507C239.296 167.713 239.594 167.018 239.892 166.423C240.19 165.827 240.488 165.083 240.785 164.19C240.984 163.396 241.183 162.602 241.381 161.808C241.58 161.014 241.778 160.22 241.977 159.426C242.076 158.929 242.126 158.483 242.126 158.086C242.126 157.59 242.225 157.093 242.423 156.597C242.523 156.101 242.572 155.704 242.572 155.406C242.672 155.108 242.771 154.711 242.87 154.215C242.87 153.123 242.92 152.181 243.019 151.387C243.118 150.593 243.168 149.65 243.168 148.558C243.168 147.665 243.118 146.772 243.019 145.878C242.92 144.985 242.87 144.042 242.87 143.05V132.331C242.87 131.438 242.821 130.544 242.721 129.651C242.622 128.758 242.572 127.914 242.572 127.12ZM229.915 93.7726C233.291 93.8719 236.219 94.3681 238.701 95.2614C241.183 96.1546 243.813 97.4448 246.593 99.1321C247.486 99.7276 248.529 100.571 249.72 101.663C250.911 102.655 251.904 103.549 252.698 104.343C253.79 105.434 254.634 106.427 255.229 107.32C255.924 108.213 256.669 109.305 257.463 110.595C259.15 113.077 260.391 115.855 261.186 118.932C262.079 122.009 262.526 124.986 262.526 127.865C262.526 129.651 262.575 131.438 262.675 133.224C262.873 135.011 262.923 136.797 262.823 138.583C262.823 140.271 262.774 141.859 262.675 143.347C262.675 144.836 262.774 146.424 262.972 148.111C263.171 149.997 263.171 151.684 262.972 153.173C262.873 154.563 262.675 156.2 262.377 158.086C262.178 159.674 261.98 161.212 261.781 162.701C261.583 164.09 261.285 165.579 260.888 167.167C260.292 169.748 259.448 172.576 258.356 175.653C257.364 178.73 256.172 181.36 254.783 183.543C253.988 184.734 253.294 185.925 252.698 187.116C252.202 188.307 251.407 189.448 250.315 190.54C250.117 190.838 249.72 191.235 249.124 191.731C248.628 192.128 248.032 192.624 247.337 193.22C246.742 193.716 246.146 194.212 245.55 194.709C244.955 195.106 244.508 195.403 244.21 195.602C242.721 196.495 241.083 197.289 239.296 197.984C237.609 198.679 235.822 199.274 233.936 199.77C232.149 200.167 230.312 200.366 228.426 200.366C226.639 200.366 224.902 200.068 223.215 199.473C222.123 199.076 221.13 198.778 220.237 198.579C219.442 198.381 218.599 198.133 217.705 197.835C216.911 197.537 216.067 197.14 215.174 196.644C214.28 196.049 213.238 195.205 212.047 194.113C211.55 193.617 211.004 193.17 210.409 192.773C209.912 192.376 209.416 191.93 208.92 191.433C208.423 190.937 207.977 190.491 207.58 190.094C207.183 189.597 206.736 189.101 206.239 188.605C205.147 187.513 204.254 186.471 203.559 185.479C202.864 184.486 202.169 183.394 201.474 182.203C201.177 181.608 200.829 181.012 200.432 180.417C200.035 179.821 199.688 179.176 199.39 178.481C198.496 176.397 197.752 174.263 197.156 172.08C196.66 169.896 196.213 167.663 195.816 165.381C195.22 162.304 194.823 159.178 194.625 156.002C194.526 152.726 194.426 149.501 194.327 146.325C194.228 139.774 194.823 133.77 196.114 128.311C197.404 122.753 199.489 117.046 202.368 111.191C203.559 108.809 205.048 106.576 206.835 104.492C208.622 102.308 210.558 100.472 212.642 98.9832C215.422 96.9982 218.152 95.6087 220.832 94.8148C223.512 94.0208 226.54 93.6734 229.915 93.7726Z" fill="black"/>
<path d="M290.643 158.304C290.444 159.2 290.295 160.495 290.195 162.188C290.096 163.88 290.096 165.175 290.195 166.071C290.295 167.066 290.345 167.863 290.345 168.46C290.444 169.058 290.494 169.655 290.494 170.253C290.593 170.75 290.593 171.348 290.494 172.045C290.494 172.642 290.394 173.439 290.195 174.434C289.996 175.53 289.947 177.073 290.046 179.064C290.146 180.956 290.245 182.499 290.345 183.694C290.544 185.387 290.494 186.881 290.195 188.175C289.897 189.469 289.748 190.913 289.748 192.506C289.748 193.303 289.797 194.049 289.897 194.746C290.096 195.443 290.245 196.19 290.345 196.987C290.444 199.376 290.643 201.666 290.942 203.857C291.24 205.948 291.34 208.138 291.24 210.428C291.141 212.32 290.942 213.764 290.643 214.76C290.444 215.656 289.25 216.054 287.061 215.954C285.469 215.954 283.927 216.004 282.434 216.104C280.941 216.104 279.399 215.954 277.807 215.656C277.011 215.457 276.314 215.357 275.717 215.357C275.12 215.357 274.424 215.357 273.628 215.357C272.533 215.457 271.588 215.506 270.792 215.506C270.095 215.506 269.498 215.407 269.001 215.208C268.603 215.009 268.354 214.61 268.254 214.013C268.155 213.316 268.155 212.37 268.254 211.175C268.453 209.283 268.503 207.79 268.404 206.695C268.304 205.5 268.205 204.006 268.105 202.214C268.005 201.417 268.005 200.721 268.105 200.123C268.205 199.526 268.254 198.829 268.254 198.032C268.453 196.539 268.503 195.045 268.404 193.552C268.404 191.958 268.453 190.365 268.553 188.772C268.652 184.292 268.652 179.761 268.553 175.181C268.553 170.601 268.503 166.021 268.404 161.441C268.404 158.255 268.304 155.218 268.105 152.33C267.906 149.343 268.005 146.306 268.404 143.22C268.603 141.627 268.603 140.183 268.404 138.889C268.205 137.594 268.105 136.15 268.105 134.557C268.005 133.163 268.005 131.67 268.105 130.077C268.205 128.484 268.205 126.99 268.105 125.596C267.906 123.903 267.806 122.41 267.806 121.116C267.906 119.722 267.906 118.178 267.806 116.486C267.806 116.087 267.757 115.49 267.657 114.693C267.657 113.897 267.657 113.1 267.657 112.304C267.757 111.408 267.906 110.611 268.105 109.914C268.304 109.217 268.603 108.769 269.001 108.57C269.2 108.47 269.647 108.421 270.344 108.421C271.14 108.321 272.036 108.271 273.031 108.271C274.026 108.172 274.921 108.122 275.717 108.122C276.613 108.122 277.21 108.122 277.508 108.122C278.802 108.122 280.245 108.221 281.837 108.421C283.429 108.62 284.922 108.819 286.315 109.018C287.907 109.217 289.001 109.765 289.598 110.661C290.295 111.457 290.942 112.553 291.539 113.947C295.32 123.406 299.748 132.367 304.823 140.83C305.519 142.025 306.067 143.17 306.465 144.265C306.962 145.36 307.559 146.506 308.256 147.7C308.952 148.696 309.5 149.791 309.898 150.986C310.296 152.181 310.843 153.326 311.54 154.421C311.739 154.72 312.186 155.566 312.883 156.96C313.579 158.354 314.326 159.848 315.122 161.441C315.918 163.034 316.664 164.478 317.361 165.772C318.157 166.967 318.604 167.514 318.704 167.415C318.803 167.315 318.803 166.419 318.704 164.727C318.704 163.034 318.654 161.142 318.555 159.051C318.555 156.861 318.505 154.819 318.405 152.928C318.306 150.936 318.256 149.741 318.256 149.343C318.157 148.148 318.107 146.754 318.107 145.161C318.107 143.568 318.157 142.174 318.256 140.979C318.356 140.183 318.405 139.536 318.405 139.038C318.505 138.44 318.455 137.694 318.256 136.798C317.858 134.408 317.659 131.62 317.659 128.434C317.659 125.248 317.56 122.31 317.361 119.622C317.361 118.925 317.41 118.278 317.51 117.68C317.609 116.983 317.709 116.286 317.808 115.59C318.007 114.196 318.206 112.802 318.405 111.408C318.604 110.014 319.6 109.217 321.391 109.018C322.187 109.018 322.933 109.068 323.63 109.167C324.326 109.167 325.072 109.217 325.868 109.317H339.75C340.446 109.416 340.894 109.815 341.093 110.512C341.391 111.209 341.541 112.005 341.541 112.901C341.541 113.698 341.491 114.544 341.391 115.44C341.292 116.237 341.242 116.884 341.242 117.382V121.713C341.143 122.51 341.143 123.256 341.242 123.953C341.441 124.551 341.541 125.248 341.541 126.044C341.64 127.438 341.69 128.882 341.69 130.375C341.69 131.869 341.69 133.313 341.69 134.707L341.839 147.7C341.839 148.497 341.889 149.244 341.988 149.941C342.088 150.638 342.138 151.384 342.138 152.181C342.237 153.774 342.237 155.367 342.138 156.96C342.038 158.454 341.988 159.997 341.988 161.59C341.988 162.984 341.988 164.527 341.988 166.22C342.088 167.913 342.038 169.456 341.839 170.85C341.64 172.045 341.541 173.489 341.541 175.181C341.64 176.874 341.789 178.367 341.988 179.662C342.088 181.056 342.088 182.549 341.988 184.142C341.988 185.735 341.988 187.229 341.988 188.623C341.889 190.116 341.789 191.61 341.69 193.104C341.69 194.497 341.69 195.941 341.69 197.435C341.789 198.132 341.839 198.878 341.839 199.675C341.839 200.472 341.889 201.218 341.988 201.915C342.187 202.712 342.337 203.459 342.436 204.156C342.536 204.753 342.536 205.5 342.436 206.396C342.436 207.392 342.436 208.835 342.436 210.727C342.436 212.619 342.287 213.963 341.988 214.76C341.491 215.954 340.546 216.651 339.153 216.851C337.66 216.95 336.217 217 334.824 217C333.53 217 332.137 216.9 330.645 216.701C329.849 216.502 329.102 216.403 328.406 216.403C327.809 216.403 327.112 216.353 326.316 216.253C324.724 216.054 323.232 216.054 321.838 216.253C320.545 216.353 319.5 215.656 318.704 214.162C317.609 212.071 316.515 209.731 315.42 207.143C314.326 204.554 313.231 202.114 312.137 199.824C311.639 198.53 311.042 197.435 310.345 196.539C309.649 195.543 309.052 194.348 308.554 192.954C308.057 191.759 307.46 190.614 306.763 189.519C306.166 188.324 305.569 187.179 304.972 186.084C304.276 184.79 303.728 183.545 303.33 182.35C302.932 181.155 302.484 179.861 301.987 178.467C301.191 176.575 300.246 174.833 299.151 173.24C298.056 171.647 297.111 170.004 296.315 168.311C295.519 167.017 294.723 165.374 293.927 163.382C293.131 161.391 292.036 159.698 290.643 158.304Z" fill="black"/>
<path d="M122.622 12.0977C124.624 12.0977 126.676 12.245 128.778 12.5398C130.98 12.7363 132.932 12.7855 134.634 12.6872C135.234 12.6872 135.885 12.6381 136.586 12.5398C137.286 12.4416 137.937 12.4416 138.538 12.5398C139.939 12.7363 140.74 13.4241 140.94 14.6032C141.24 15.7823 141.39 16.9123 141.39 17.9932C141.39 20.4496 141.29 22.9061 141.09 25.3625C140.99 27.819 140.84 30.2754 140.64 32.7319C140.439 33.911 140.389 35.0901 140.489 36.2692C140.69 37.4483 140.84 38.6765 140.94 39.9539C141.14 42.2138 141.04 44.572 140.64 47.0285C140.339 49.4849 140.189 51.8923 140.189 54.2505C140.289 57.493 140.239 61.1777 140.039 65.3045C139.939 69.3331 139.689 72.9687 139.288 76.2112C139.188 77.4885 139.038 78.7168 138.838 79.8959C138.638 81.075 138.437 82.3032 138.237 83.5806C138.037 84.9562 137.887 86.1353 137.787 87.1179C137.687 88.1004 137.386 89.2304 136.886 90.5078C136.586 91.5886 136.285 92.6695 135.985 93.7503C135.685 94.7329 135.335 95.7646 134.934 96.8454C134.334 98.7123 133.383 100.579 132.081 102.446C130.78 104.313 129.529 106.033 128.328 107.605C126.826 109.275 125.325 110.749 123.824 112.026C122.322 113.205 120.52 114.237 118.418 115.121C115.916 116.202 113.664 116.988 111.662 117.48C109.66 117.873 107.308 118.02 104.605 117.922C101.803 117.725 99.5004 117.381 97.6986 116.89C95.8969 116.301 93.845 115.269 91.5428 113.795C89.5409 112.714 87.8392 111.535 86.4379 110.258C85.0366 108.98 83.6352 107.457 82.2339 105.689C80.9326 104.018 79.7815 102.201 78.7806 100.235C77.7796 98.2702 76.9288 96.305 76.2282 94.3398C75.4274 92.2764 74.8268 90.7534 74.4264 89.7708C74.1262 88.7882 73.8759 87.9531 73.6757 87.2652C73.5756 86.5774 73.4755 85.8405 73.3754 85.0544C73.2753 84.1701 73.0251 82.7945 72.6247 80.9276C72.0242 78.3729 71.6238 75.5234 71.4236 72.3791C71.3235 69.2349 71.2734 65.9923 71.2734 62.6515C71.2734 59.3108 71.2734 56.0191 71.2734 52.7766C71.3735 49.4358 71.3735 46.3898 71.2734 43.6386C71.2734 42.3612 71.2234 41.0839 71.1233 39.8065C71.0232 38.5291 71.0732 37.3009 71.2734 36.1218C71.3735 34.8445 71.4736 33.6654 71.5737 32.5845C71.6738 31.5037 71.7239 30.3246 71.7239 29.0472C71.7239 28.4577 71.6738 27.4751 71.5737 26.0995C71.5737 24.6256 71.5737 23.1517 71.5737 21.6778C71.6738 20.1057 71.7739 18.681 71.874 17.4036C71.9741 16.028 72.1743 15.1437 72.4746 14.7506C73.1752 14.0628 74.2763 13.7681 75.7777 13.8663C77.2792 13.8663 78.4803 13.8663 79.3812 13.8663C80.5823 13.7681 81.6834 13.7189 82.6843 13.7189C83.7854 13.7189 84.8864 13.7189 85.9875 13.7189C86.9884 13.7189 88.1395 13.6698 89.4408 13.5715C90.742 13.4733 91.743 13.8172 92.4436 14.6032C93.2444 15.4876 93.5947 16.6667 93.4946 18.1405C93.4946 19.6144 93.4946 20.8918 93.4946 21.9726C93.2944 24.7238 93.2944 27.3768 93.4946 29.9315C93.6948 32.5845 93.7449 35.1392 93.6448 37.5957C93.5447 39.9539 93.4446 42.4595 93.3445 45.1124C93.2444 47.6672 93.1943 50.2219 93.1943 52.7766C93.2944 55.233 93.3945 57.7386 93.4946 60.2933C93.5947 62.3568 93.6448 63.8798 93.6448 64.8624C93.7449 65.8449 93.7949 66.7293 93.7949 67.5153C93.895 68.3014 93.9951 69.1857 94.0952 70.1683C94.2954 71.1509 94.5456 72.6248 94.8459 74.5899C95.2463 77.2429 95.5966 79.5028 95.8969 81.3698C96.2973 83.2367 97.1982 85.3983 98.5995 87.8548C99.8006 90.0165 101.202 91.6377 102.804 92.7186C104.505 93.7994 106.157 94.1925 107.758 93.8977C109.46 93.6029 111.011 92.5221 112.413 90.6552C113.814 88.7882 114.865 86.037 115.566 82.4015C115.766 81.3206 115.966 80.1415 116.166 78.8642C116.467 77.5868 116.667 76.3586 116.767 75.1795C116.967 72.6248 117.167 70.0209 117.367 67.3679C117.568 64.715 117.618 62.1603 117.518 59.7038C117.417 58.2299 117.367 56.9526 117.367 55.8717C117.467 54.6926 117.568 53.3661 117.668 51.8923C117.768 50.5167 117.768 49.2884 117.668 48.2076C117.568 47.0285 117.467 45.7511 117.367 44.3755C117.267 43.0981 117.267 41.8208 117.367 40.5434C117.467 39.2661 117.568 37.9887 117.668 36.7114C117.868 34.2549 117.818 31.8476 117.518 29.4894C117.317 27.0329 117.317 24.5765 117.518 22.12C117.518 21.4322 117.518 20.7935 117.518 20.204C117.618 19.6144 117.618 19.0249 117.518 18.4353C117.518 17.7475 117.467 17.0106 117.367 16.2245C117.267 15.4384 117.317 14.7506 117.518 14.1611C117.818 13.5715 118.318 13.0802 119.019 12.6872C119.82 12.2942 121.021 12.0977 122.622 12.0977Z" fill="black"/>
<path d="M29.2478 12.0977C30.242 12.0977 31.3854 12.0977 32.678 12.0977C34.0699 12.0977 35.4619 12.1471 36.8539 12.2459C38.2458 12.2459 39.5881 12.3447 40.8806 12.5424C42.1731 12.7401 43.2668 13.0366 44.1617 13.4319C46.4485 14.3215 48.3375 15.2604 49.8289 16.2488C51.3203 17.2371 52.7123 18.7197 54.0048 20.6964C55.0985 22.4755 55.9933 24.1557 56.6893 25.7371C57.4847 27.3184 58.0316 28.8998 58.3298 30.4812C58.7276 31.9638 58.9761 33.5451 59.0755 35.2253C59.175 36.9056 59.175 38.7835 59.0755 40.859C59.0755 42.2427 58.6281 43.0828 57.7333 43.3793C56.9379 43.6759 55.9436 43.8241 54.7505 43.8241C53.3586 43.8241 52.066 43.8735 50.8729 43.9724C49.7792 44.0712 48.5861 44.17 47.2936 44.2689C46.001 44.3677 44.7582 44.3677 43.5651 44.2689C42.4714 44.0712 41.676 43.2805 41.1789 41.8968C40.7812 40.8096 40.632 39.673 40.7315 38.4869C40.8309 37.3009 40.632 36.0655 40.1349 34.7806C39.3395 32.5073 37.8481 31.0742 35.6607 30.4812C33.4734 29.7894 31.286 29.987 29.0986 31.0742C28.005 31.6672 27.2095 32.3591 26.7124 33.1498C26.2153 33.9405 25.8176 34.9288 25.5193 36.1149C25.1216 37.5974 24.9228 38.8823 24.9228 39.9695C25.0222 40.9579 25.2707 41.8474 25.6684 42.6381C26.0662 43.4288 26.613 44.2195 27.309 45.0101C28.1044 45.702 28.9992 46.4927 29.9935 47.3822C30.7889 48.0741 31.5843 48.7165 32.3797 49.3095C33.1751 49.8037 33.9705 50.4461 34.7659 51.2368C35.5613 51.9287 36.3567 52.5711 37.1521 53.1641C38.047 53.6583 38.8921 54.3008 39.6875 55.0914C40.4829 55.7833 41.2286 56.4752 41.9246 57.167C42.72 57.76 43.5154 58.4025 44.3108 59.0943C44.8079 59.4897 45.4542 60.0827 46.2496 60.8734C47.1444 61.5652 47.9896 62.3065 48.785 63.0972C49.6798 63.8879 50.5249 64.6786 51.3203 65.4693C52.1157 66.1611 52.762 66.7541 53.2591 67.2483C54.4522 68.4343 55.3471 69.3239 55.9436 69.9169C56.6396 70.5099 57.1864 71.0535 57.5842 71.5477C57.9819 72.0419 58.3796 72.6843 58.7773 73.475C59.2744 74.1668 59.9704 75.3529 60.8652 77.0331C61.76 78.911 62.456 80.9866 62.9532 83.2598C63.5497 85.8295 63.9474 88.1522 64.1463 90.2277C64.4445 92.3033 64.196 94.626 63.4006 97.1957C62.804 98.9748 61.9092 100.902 60.7161 102.978C59.6224 104.954 58.5287 106.684 57.435 108.167C56.1425 109.847 54.6014 111.28 52.8117 112.466C51.1215 113.553 49.4312 114.64 47.741 115.728C45.5536 117.111 43.2171 117.852 40.7315 117.951C38.2458 117.951 35.8099 117.951 33.4237 117.951C31.9323 117.951 30.6397 117.951 29.5461 117.951C28.4524 117.852 27.3587 117.754 26.265 117.655C25.2707 117.457 24.2268 117.161 23.1331 116.765C22.1388 116.37 20.9457 115.876 19.5538 115.283C18.5595 114.789 17.5652 114.393 16.571 114.097C15.5767 113.701 14.5327 113.257 13.4391 112.762C12.4448 112.268 11.55 111.774 10.7546 111.28C10.0586 110.687 9.31289 109.995 8.51748 109.204C7.4238 108.315 6.62839 107.623 6.13126 107.129C5.63413 106.536 5.23643 106.042 4.93815 105.646C4.63987 105.152 4.3416 104.658 4.04332 104.164C3.84447 103.571 3.44676 102.829 2.85021 101.94C2.55193 101.446 2.25365 101.001 1.95538 100.606C1.6571 100.21 1.35882 99.8149 1.06054 99.4195C0.265136 98.1346 -0.0828549 97.0475 0.016571 96.1579C0.215423 95.2684 0.662839 94.4777 1.35882 93.7859C2.0548 92.9952 2.89992 92.3527 3.89418 91.8585C4.98787 91.2655 5.98212 90.7219 6.87696 90.2277C7.87122 89.7336 8.76605 89.2888 9.56146 88.8935C10.4563 88.3993 11.4008 87.8063 12.3951 87.1144C14.0853 86.0272 15.3282 85.533 16.1236 85.6319C17.0184 85.7307 17.6647 86.126 18.0624 86.8179C18.5595 87.5097 18.9572 88.3499 19.2555 89.3382C19.6532 90.3266 20.1503 91.1667 20.7469 91.8585C21.4428 92.6492 22.0891 93.4399 22.6857 94.2306C23.3817 94.9225 24.1771 95.5155 25.0719 96.0097C25.9667 96.5038 27.0604 96.8992 28.3529 97.1957C29.7449 97.3934 30.938 97.591 31.9323 97.7887C33.2248 97.9864 34.3185 97.9864 35.2133 97.7887C36.1082 97.4922 37.0527 96.8992 38.047 96.0097C39.1407 94.9225 39.9361 93.9835 40.4332 93.1928C40.9303 92.3033 41.1789 91.4138 41.1789 90.5242C41.2783 89.6347 41.1789 88.6958 40.8806 87.7074C40.5823 86.6202 40.1349 85.4342 39.5384 84.1493C38.9418 82.9633 38.4447 82.0737 38.047 81.4807C37.6493 80.7889 36.9036 80.0476 35.8099 79.2569C35.0145 78.4662 34.2688 77.7249 33.5728 77.0331C32.9762 76.2424 32.2803 75.5011 31.4849 74.8093C30.6895 74.1174 29.8443 73.5244 28.9495 73.0302C28.1541 72.4372 27.3587 71.7948 26.5633 71.1029C25.7679 70.4111 25.0222 69.7686 24.3262 69.1756C23.6302 68.4838 22.8348 67.8413 21.94 67.2483C21.5423 66.9518 20.8463 66.4576 19.852 65.7658C18.9572 64.9751 17.9629 64.1844 16.8693 63.3937C15.875 62.603 14.9305 61.8617 14.0356 61.1699C13.1408 60.478 12.5442 59.9838 12.246 59.6873C10.854 58.3036 9.46203 56.8211 8.07007 55.2397C6.77753 53.5595 5.58442 51.8793 4.49074 50.199C3.1982 48.2223 2.55193 46.0973 2.55193 43.8241C2.4525 42.6381 2.35308 41.4026 2.25365 40.1177C2.25365 38.734 2.30337 37.4492 2.40279 36.2631C2.40279 35.4724 2.55193 34.5335 2.85021 33.4463C3.24791 32.2603 3.64562 31.0742 4.04332 29.8882C4.54045 28.6033 5.03758 27.4173 5.53471 26.3301C6.03184 25.2429 6.47925 24.4028 6.87696 23.8098C7.27466 23.2167 7.87122 22.5249 8.66662 21.7342C9.46203 20.9435 10.3071 20.2022 11.202 19.5104C12.1962 18.7197 13.1408 18.0278 14.0356 17.4348C14.9305 16.8418 15.7259 16.3476 16.4218 15.9523C18.4104 14.8651 20.4486 14.025 22.5365 13.4319C24.7239 12.7401 26.961 12.2953 29.2478 12.0977Z" fill="black"/>
<path d="M174.962 49.834C174.763 50.7239 174.613 52.0093 174.514 53.6902C174.414 55.3711 174.414 56.6565 174.514 57.5464C174.613 58.5352 174.663 59.3262 174.663 59.9194C174.763 60.5127 174.812 61.106 174.812 61.6992C174.912 62.1936 174.912 62.7869 174.812 63.479C174.812 64.0723 174.713 64.8633 174.514 65.8521C174.315 66.9397 174.265 68.4723 174.365 70.4498C174.464 72.3285 174.564 73.8611 174.663 75.0476C174.862 76.7285 174.812 78.2117 174.514 79.4971C174.215 80.7825 174.066 82.2162 174.066 83.7982C174.066 84.5892 174.116 85.3308 174.215 86.023C174.414 86.7151 174.564 87.4567 174.663 88.2477C174.763 90.6207 174.962 92.8949 175.26 95.0702C175.559 97.1466 175.658 99.3219 175.559 101.596C175.459 103.475 175.26 104.908 174.962 105.897C174.763 106.787 173.568 107.183 171.379 107.084C169.787 107.084 168.245 107.133 166.752 107.232C165.26 107.232 163.717 107.084 162.125 106.787C161.329 106.589 160.633 106.49 160.036 106.49C159.439 106.49 158.742 106.49 157.946 106.49C156.851 106.589 155.906 106.639 155.11 106.639C154.413 106.639 153.816 106.54 153.319 106.342C152.921 106.144 152.672 105.749 152.573 105.156C152.473 104.464 152.473 103.524 152.573 102.338C152.772 100.459 152.821 98.9758 152.722 97.8882C152.622 96.7017 152.523 95.2185 152.423 93.4387C152.324 92.6477 152.324 91.9556 152.423 91.3623C152.523 90.769 152.573 90.0769 152.573 89.2859C152.772 87.8027 152.821 86.3196 152.722 84.8364C152.722 83.2544 152.772 81.6724 152.871 80.0903C152.971 75.6409 152.971 71.142 152.871 66.5936C152.871 62.0453 152.821 57.497 152.722 52.9486C152.722 49.7846 152.622 46.7688 152.423 43.9014C152.224 40.9351 152.324 37.9193 152.722 34.8541C152.921 33.2721 152.921 31.8384 152.722 30.553C152.523 29.2676 152.423 27.8339 152.423 26.2518C152.324 24.8676 152.324 23.3844 152.423 21.8024C152.523 20.2203 152.523 18.7372 152.423 17.3529C152.224 15.672 152.125 14.1888 152.125 12.9034C152.224 11.5192 152.224 9.98657 152.125 8.30566C152.125 7.91015 152.075 7.31689 151.976 6.52588C151.976 5.73486 151.976 4.94385 151.976 4.15283C152.075 3.26294 152.224 2.47192 152.423 1.77979C152.622 1.08765 152.921 0.642701 153.319 0.444949C153.518 0.346068 153.966 0.296627 154.662 0.296627C155.458 0.197752 156.354 0.148313 157.349 0.148313C158.344 0.0494376 159.24 0 160.036 0C160.931 0 161.528 0 161.827 0C163.12 0 164.563 0.0988761 166.155 0.296627C167.747 0.494385 169.24 0.692139 170.633 0.88989C172.225 1.08765 173.32 1.63147 173.917 2.52137C174.613 3.31238 175.26 4.40002 175.857 5.7843C179.638 15.1776 184.066 24.0765 189.141 32.4811C189.838 33.6676 190.385 34.8047 190.783 35.8923C191.281 36.98 191.878 38.1171 192.574 39.3036C193.271 40.2924 193.818 41.38 194.216 42.5665C194.614 43.7531 195.161 44.8901 195.858 45.9778C196.057 46.2744 196.505 47.1149 197.201 48.4991C197.898 49.8834 198.644 51.3666 199.44 52.9486C200.236 54.5306 200.982 55.9644 201.679 57.2498C202.475 58.4363 202.923 58.9801 203.022 58.8812C203.122 58.7824 203.122 57.8925 203.022 56.2115C203.022 54.5306 202.973 52.652 202.873 50.5756C202.873 48.4003 202.823 46.3733 202.724 44.4946C202.624 42.5171 202.575 41.3306 202.575 40.9351C202.475 39.7485 202.425 38.3643 202.425 36.7822C202.425 35.2002 202.475 33.8159 202.575 32.6294C202.674 31.8384 202.724 31.1957 202.724 30.7013C202.823 30.108 202.774 29.3665 202.575 28.4766C202.177 26.1035 201.978 23.335 201.978 20.1709C201.978 17.0068 201.878 14.09 201.679 11.4203C201.679 10.7281 201.729 10.0854 201.828 9.49219C201.928 8.80005 202.027 8.10791 202.127 7.41577C202.326 6.0315 202.525 4.64722 202.724 3.26294C202.923 1.87867 203.918 1.08765 205.709 0.88989C206.505 0.88989 207.251 0.939328 207.948 1.0382C208.644 1.0382 209.391 1.08764 210.187 1.18653L224.068 1.18653C224.764 1.2854 225.212 1.68091 225.411 2.37304C225.71 3.06518 225.859 3.8562 225.859 4.74609C225.859 5.53711 225.809 6.37757 225.71 7.26746C225.61 8.05847 225.561 8.70117 225.561 9.19555V13.4967C225.461 14.2877 225.461 15.0293 225.561 15.7214C225.76 16.3147 225.859 17.0068 225.859 17.7979C225.959 19.1821 226.008 20.6158 226.008 22.099C226.008 23.5822 226.008 25.0159 226.008 26.4002L226.158 39.3036C226.158 40.0946 226.207 40.8362 226.307 41.5283C226.406 42.2205 226.456 42.962 226.456 43.7531C226.556 45.3351 226.556 46.9171 226.456 48.4991C226.357 49.9823 226.307 51.5149 226.307 53.0969C226.307 54.4812 226.307 56.0138 226.307 57.6947C226.406 59.3756 226.357 60.9082 226.158 62.2925C225.959 63.479 225.859 64.9127 225.859 66.5936C225.959 68.2745 226.108 69.7577 226.307 71.0431C226.406 72.4274 226.406 73.9105 226.307 75.4926C226.307 77.0746 226.307 78.5577 226.307 79.942C226.207 81.4252 226.108 82.9083 226.008 84.3915C226.008 85.7758 226.008 87.2095 226.008 88.6926C226.108 89.3848 226.158 90.1264 226.158 90.9174C226.158 91.7084 226.207 92.45 226.307 93.1421C226.506 93.9331 226.655 94.6747 226.755 95.3668C226.854 95.9601 226.854 96.7017 226.755 97.5916C226.755 98.5803 226.755 100.014 226.755 101.893C226.755 103.771 226.605 105.106 226.307 105.897C225.809 107.084 224.864 107.776 223.471 107.974C221.978 108.073 220.535 108.122 219.142 108.122C217.849 108.122 216.456 108.023 214.963 107.825C214.167 107.628 213.421 107.529 212.724 107.529C212.127 107.529 211.431 107.479 210.635 107.38C209.042 107.183 207.55 107.183 206.157 107.38C204.863 107.479 203.818 106.787 203.022 105.304C201.928 103.228 200.833 100.904 199.739 98.3331C198.644 95.7623 197.549 93.3399 196.455 91.0657C195.957 89.7803 195.36 88.6926 194.664 87.8027C193.967 86.814 193.37 85.6274 192.873 84.2432C192.375 83.0566 191.778 81.9196 191.082 80.8319C190.485 79.6454 189.888 78.5083 189.29 77.4207C188.594 76.1353 188.047 74.8993 187.649 73.7128C187.251 72.5262 186.803 71.2408 186.305 69.8566C185.509 67.9779 184.564 66.2476 183.469 64.6655C182.375 63.0835 181.429 61.452 180.633 59.7711C179.837 58.4857 179.041 56.8543 178.245 54.8767C177.449 52.8992 176.355 51.2183 174.962 49.834Z" fill="black"/>
</svg>
