<svg width="397" height="252" viewBox="0 0 397 252" fill="none" xmlns="http://www.w3.org/2000/svg">
<path d="M58.3771 211.946C58.1493 211.488 57.9785 211.145 57.8647 210.916C57.7508 210.687 57.58 210.286 57.3523 209.714C57.2384 209.485 57.1245 209.199 57.0107 208.855C56.8968 208.397 56.7829 208.054 56.6691 207.825C56.5552 207.481 56.3275 206.966 55.9859 206.279C55.6443 205.478 55.3027 204.676 54.9611 203.875C54.7334 202.959 54.4487 202.1 54.1071 201.299C53.8794 200.498 53.7655 199.925 53.7655 199.582C53.6516 199.353 53.4808 199.009 53.2531 198.551C53.1392 198.093 53.0254 197.75 52.9115 197.521C52.5699 196.491 52.3422 195.975 52.2283 195.975C52.2283 195.975 52.0575 195.918 51.7159 195.804C51.4882 196.033 51.3743 196.319 51.3743 196.662C51.3743 196.891 51.3743 197.177 51.3743 197.521L51.0327 202.845C50.805 203.989 50.6911 205.134 50.6911 206.279C50.805 207.31 50.805 208.34 50.6911 209.37L50.3495 216.411L51.0327 226.028C51.1466 226.601 51.2035 227.402 51.2035 228.433C51.3174 229.349 51.3743 230.322 51.3743 231.352C51.4882 232.383 51.5451 233.413 51.5451 234.443C51.5451 235.359 51.4882 236.046 51.3743 236.504C51.1466 237.535 50.9758 238.336 50.8619 238.908C50.8619 239.366 50.8619 239.71 50.8619 239.939C50.8619 240.168 50.8619 240.397 50.8619 240.626C50.9758 240.855 51.0327 241.255 51.0327 241.828C51.0327 242.171 50.9758 242.515 50.8619 242.858C50.8619 243.087 50.8619 243.316 50.8619 243.545C50.8619 244.118 50.9188 244.69 51.0327 245.262C51.1466 245.72 51.1466 246.293 51.0327 246.98C51.0327 247.209 50.9188 247.781 50.6911 248.697C50.5772 249.499 50.4634 249.956 50.3495 250.071C49.7802 250.529 49.1539 250.758 48.4707 250.758C47.7875 250.643 47.1613 250.586 46.5919 250.586C45.4533 250.472 44.7701 250.529 44.5423 250.758C44.4285 250.872 43.973 251.044 43.1759 251.273C42.9482 251.273 42.3219 251.273 41.2971 251.273C40.2723 251.159 39.5891 251.101 39.2475 251.101C38.3366 251.101 37.7104 251.159 37.3688 251.273C37.0272 251.388 36.4009 251.33 35.49 251.101C34.579 250.872 33.8958 250.872 33.4404 251.101C32.9849 251.216 32.3586 251.216 31.5616 251.101C31.22 251.101 30.6506 251.159 29.8536 251.273C29.1704 251.388 28.4303 251.445 27.6332 251.445C26.95 251.445 26.2668 251.388 25.5836 251.273C25.0143 251.044 24.6157 250.643 24.388 250.071C24.1603 249.613 24.0464 249.041 24.0464 248.354C24.1603 247.552 24.1603 246.865 24.0464 246.293C23.7048 243.316 23.5909 240.511 23.7048 237.878C23.8187 235.13 23.9325 232.268 24.0464 229.291C24.0464 226.658 23.9895 224.082 23.8756 221.563C23.8756 218.93 23.9895 216.297 24.2172 213.664C24.3311 212.404 24.388 211.546 24.388 211.088C24.388 210.515 24.388 210.057 24.388 209.714C24.388 209.256 24.3311 208.798 24.2172 208.34C24.2172 207.768 24.1603 206.794 24.0464 205.421C24.0464 204.734 24.1033 204.104 24.2172 203.532C24.3311 202.845 24.3311 202.215 24.2172 201.642C23.9895 200.612 23.9325 199.925 24.0464 199.582C24.1603 199.238 24.2741 198.609 24.388 197.693C24.5019 197.006 24.4449 196.319 24.2172 195.632C24.1033 194.83 24.1033 194.144 24.2172 193.571C24.2172 193.228 24.2741 192.941 24.388 192.712C24.5019 192.483 24.5019 192.14 24.388 191.682C24.388 191.224 24.3311 190.938 24.2172 190.823C24.2172 190.594 24.2741 190.194 24.388 189.621C24.6157 188.476 24.6727 187.217 24.5588 185.843C24.4449 184.469 24.388 183.21 24.388 182.065C24.388 181.607 24.388 181.206 24.388 180.863C24.5019 180.519 24.5019 180.233 24.388 180.004C24.388 179.661 24.388 179.317 24.388 178.974C24.388 178.516 24.3311 178.115 24.2172 177.772C24.2172 177.657 24.2172 177.257 24.2172 176.57C24.3311 175.768 24.4449 174.967 24.5588 174.165C24.6727 173.249 24.7296 172.391 24.7296 171.589C24.7296 170.788 24.7296 170.215 24.7296 169.872V166.094C24.6157 164.72 24.6727 163.403 24.9004 162.144C25.1281 160.77 25.2989 159.396 25.4128 158.022C25.4128 157.107 25.4128 155.904 25.4128 154.416C25.4128 152.928 25.4128 151.382 25.4128 149.779C25.4128 148.177 25.3559 146.688 25.242 145.314C25.242 143.826 25.1851 142.738 25.0712 142.051C24.8435 140.792 24.7865 139.533 24.9004 138.273C25.0143 137.014 25.1851 135.755 25.4128 134.495C25.4128 134.381 25.5267 133.751 25.7544 132.606C25.7544 132.034 25.8113 131.461 25.9252 130.889C26.1529 130.545 26.6084 130.202 27.2916 129.858C27.9748 129.515 28.4872 129.286 28.8288 129.171C29.2843 129.057 29.7967 129.114 30.366 129.343C31.0492 129.572 31.7893 129.629 32.5864 129.515C32.928 129.515 33.2696 129.458 33.6112 129.343C33.9528 129.229 34.2944 129.171 34.636 129.171C34.8637 129.171 35.0914 129.229 35.3192 129.343C35.6608 129.343 35.9454 129.286 36.1732 129.171C37.7673 128.942 39.1906 128.942 40.4431 129.171C41.6957 129.286 43.0051 129.343 44.3715 129.343C45.5102 129.343 46.3642 129.286 46.9335 129.171C47.6167 128.942 48.1291 128.828 48.4707 128.828C48.9262 128.828 49.2678 129 49.4955 129.343C49.8371 129.572 50.1787 130.145 50.5203 131.061C50.748 131.404 50.8619 131.633 50.8619 131.747C50.9758 131.862 51.0896 132.148 51.2035 132.606C51.3174 133.179 51.3743 133.579 51.3743 133.808C51.4882 133.923 51.5451 134.037 51.5451 134.152C51.659 134.266 51.7728 134.438 51.8867 134.667C52.0006 134.781 52.1714 135.182 52.3991 135.869C52.513 136.098 52.6268 136.327 52.7407 136.556C52.8546 136.785 53.0254 137.014 53.2531 137.243C53.4808 137.701 53.7086 138.216 53.9363 138.788C54.2779 139.246 54.5626 139.762 54.7903 140.334C55.3596 141.364 55.6443 142.051 55.6443 142.395C55.7581 142.738 55.9289 143.082 56.1567 143.425C56.6121 144.112 56.8968 144.627 57.0107 144.971C57.1245 145.314 57.2953 145.829 57.5231 146.516C57.7508 146.86 57.8647 147.089 57.8647 147.203C57.9785 147.318 58.0924 147.604 58.2063 148.062C58.6617 149.321 58.9464 150.008 59.0603 150.123C59.1741 150.123 59.3449 150.524 59.5727 151.325L61.1099 156.477C61.4515 157.507 61.9069 158.595 62.4763 159.74C63.0456 160.77 63.4441 161.858 63.6718 163.003C63.8996 163.575 64.1273 164.09 64.355 164.548C64.6966 165.006 64.9813 165.521 65.209 166.094C65.4368 166.437 65.4937 166.724 65.3798 166.953C65.3798 167.067 65.4937 167.353 65.7214 167.811C66.063 168.498 66.2908 169.013 66.4046 169.357C66.6324 169.7 66.7462 170.044 66.7462 170.387C66.8601 170.616 66.974 170.902 67.0878 171.246C67.2017 171.589 67.3725 172.047 67.6002 172.62C68.1696 173.765 68.682 174.795 69.1374 175.711C69.5929 176.512 70.1053 177.485 70.6746 178.63C70.9024 179.088 71.1301 179.604 71.3578 180.176C71.5856 180.748 71.8133 181.206 72.041 181.55L76.4818 190.823C76.7095 191.396 76.9373 191.968 77.165 192.541C77.3927 192.999 77.7913 193.228 78.3606 193.228C78.4745 193.113 78.7022 192.712 79.0438 192.025C79.4993 191.224 79.8978 190.365 80.2394 189.449C80.6948 188.419 81.0934 187.503 81.435 186.702C81.8904 185.9 82.1751 185.385 82.289 185.156C82.8583 183.668 83.4276 182.294 83.997 181.035C84.6802 179.775 85.3634 178.459 86.0466 177.085C86.502 176.512 86.8436 175.883 87.0714 175.196C87.413 174.394 87.7546 173.707 88.0962 173.135C88.21 172.791 88.3808 172.276 88.6086 171.589C88.9501 170.788 89.2917 169.987 89.6333 169.185C89.9749 168.269 90.3165 167.411 90.6581 166.609C90.9997 165.693 91.2844 165.064 91.5121 164.72C91.9676 163.919 92.2523 163.232 92.3661 162.659C92.48 161.972 92.7077 161.285 93.0493 160.598C93.6187 159.454 94.188 158.022 94.7573 156.305C95.4405 154.588 95.9529 153.099 96.2945 151.84C96.4084 151.382 96.5223 151.039 96.6361 150.81C96.75 150.466 96.9208 150.123 97.1485 149.779C97.3762 149.207 97.604 148.348 97.8317 147.203C98.1733 146.058 98.7996 144.856 99.7105 143.597C100.052 143.139 100.223 142.796 100.223 142.567C100.223 142.338 100.337 141.937 100.564 141.364C100.792 141.021 101.134 140.391 101.589 139.475L102.614 137.415C102.842 137.071 103.013 136.842 103.126 136.728C103.24 136.499 103.411 136.098 103.639 135.526C103.867 134.953 104.037 134.61 104.151 134.495C104.265 134.381 104.379 134.094 104.493 133.637C104.721 133.064 104.834 132.663 104.834 132.434C104.834 132.205 105.005 131.805 105.347 131.232C105.688 130.545 105.973 129.973 106.201 129.515C106.542 128.942 107.34 128.828 108.592 129.171C109.161 129.286 109.958 129.343 110.983 129.343C112.122 129.343 112.976 129.343 113.545 129.343C114.798 129.229 115.709 129.171 116.278 129.171C116.847 129.171 117.36 129.171 117.815 129.171C118.271 129.171 118.726 129.171 119.182 129.171C119.637 129.171 120.32 129.171 121.231 129.171C121.573 129.171 121.971 129.229 122.427 129.343C122.882 129.458 123.338 129.515 123.793 129.515C124.363 129.629 124.761 129.687 124.989 129.687C125.217 129.572 125.615 129.4 126.184 129.171C126.868 128.942 127.266 128.942 127.38 129.171C127.494 129.286 127.835 129.458 128.405 129.687C129.088 130.03 129.543 130.316 129.771 130.545C129.999 130.66 130.113 130.832 130.113 131.061C130.227 131.289 130.227 131.576 130.113 131.919C130.113 132.263 130.17 132.721 130.284 133.293C130.511 133.98 130.625 134.839 130.625 135.869C130.739 136.785 130.91 137.644 131.138 138.445C131.251 139.246 131.251 140.105 131.138 141.021C131.024 141.822 130.91 142.567 130.796 143.254L130.454 154.073C130.454 154.645 130.511 155.046 130.625 155.275C130.739 155.504 130.739 155.904 130.625 156.477C130.397 157.736 130.511 159.282 130.967 161.114C131.422 162.831 131.536 164.72 131.308 166.781V174.337C131.308 174.795 131.365 175.196 131.479 175.539C131.593 175.883 131.65 176.341 131.65 176.913C131.65 177.485 131.65 177.943 131.65 178.287C131.65 178.63 131.593 179.088 131.479 179.661C131.479 180.233 131.479 180.691 131.479 181.035C131.593 181.378 131.65 181.836 131.65 182.408L131.479 184.813C131.479 185.5 131.422 186.416 131.308 187.56C131.308 188.591 131.422 189.449 131.65 190.136C131.65 190.709 131.593 191.167 131.479 191.51C131.365 191.739 131.422 192.14 131.65 192.712C131.878 193.628 131.878 194.487 131.65 195.288C131.536 196.09 131.536 197.063 131.65 198.208C131.764 198.78 131.821 199.238 131.821 199.582C131.935 199.811 131.935 200.211 131.821 200.784C131.821 201.356 131.764 201.814 131.65 202.158C131.65 202.501 131.764 202.959 131.992 203.532C131.992 203.875 131.935 204.39 131.821 205.077C131.821 205.764 131.764 206.565 131.65 207.481C131.65 208.283 131.593 209.141 131.479 210.057C131.479 210.859 131.536 211.488 131.65 211.946C131.992 214.351 132.049 216.526 131.821 218.472C131.707 220.419 131.764 221.85 131.992 222.766V225.342C131.878 225.914 131.821 226.372 131.821 226.715C131.935 227.059 131.992 227.517 131.992 228.089C131.992 228.547 131.992 229.349 131.992 230.494C132.105 231.524 132.162 232.612 132.162 233.756C132.276 234.901 132.333 236.046 132.333 237.191C132.333 238.221 132.276 238.966 132.162 239.424C132.049 240.339 131.992 241.37 131.992 242.515C132.105 243.545 132.105 244.518 131.992 245.434C131.878 246.35 131.821 247.381 131.821 248.525C131.821 249.556 131.65 250.243 131.308 250.586C130.397 251.388 129.259 251.674 127.892 251.445C126.526 251.216 125.501 251.101 124.818 251.101C124.59 251.101 124.363 251.159 124.135 251.273C124.021 251.273 123.85 251.273 123.622 251.273C122.939 251.159 122.484 251.044 122.256 250.93C122.028 250.815 121.516 250.872 120.719 251.101C119.694 251.33 118.84 251.388 118.157 251.273C117.474 251.159 116.62 251.101 115.595 251.101C115.253 251.101 114.741 251.159 114.058 251.273C113.488 251.273 113.09 251.273 112.862 251.273C112.52 251.159 112.179 251.044 111.837 250.93C111.496 250.701 111.097 250.586 110.642 250.586C109.845 250.472 108.934 250.472 107.909 250.586C106.998 250.701 106.201 250.529 105.518 250.071C105.518 249.956 105.404 249.441 105.176 248.525C105.062 247.609 105.005 247.037 105.005 246.808V239.595C104.778 237.992 104.607 236.848 104.493 236.161C104.379 235.474 104.322 234.901 104.322 234.443C104.322 233.871 104.322 233.241 104.322 232.554C104.436 231.753 104.55 230.494 104.664 228.776C104.778 228.204 104.834 227.631 104.834 227.059C104.948 226.486 105.062 225.971 105.176 225.513C105.176 225.055 105.176 224.597 105.176 224.139C105.176 223.567 105.233 222.995 105.347 222.422C105.575 219.903 105.632 217.614 105.518 215.553C105.518 213.378 105.404 211.031 105.176 208.512C105.062 206.68 104.948 204.39 104.834 201.642C104.721 198.78 104.493 196.548 104.151 194.945C103.582 195.174 103.24 195.632 103.126 196.319C103.013 196.891 102.899 197.464 102.785 198.036L98.1733 210.916C97.8317 211.488 97.5471 211.946 97.3193 212.29C97.0916 212.519 96.8639 213.034 96.6361 213.835C96.5223 214.408 96.3515 214.98 96.1237 215.553C96.0099 216.011 95.8391 216.526 95.6113 217.098C95.4975 217.327 95.3836 217.556 95.2697 217.785C95.1559 218.014 94.9851 218.301 94.7573 218.644L94.2449 220.19C94.0172 220.648 93.7325 221.105 93.3909 221.563C93.1632 222.021 92.9355 222.537 92.7077 223.109L89.9749 228.948C89.7472 229.864 89.5195 230.436 89.2917 230.665C89.064 230.894 88.8363 231.352 88.6086 232.039C88.3808 232.726 88.21 233.298 88.0962 233.756C87.8684 234.1 87.6976 234.329 87.5838 234.443C87.5838 234.558 87.5268 234.787 87.413 235.13C87.0714 236.046 86.6728 236.905 86.2174 237.706C85.7619 238.508 85.4772 239.195 85.3634 239.767C85.1356 240.111 84.9648 240.339 84.851 240.454C84.851 240.454 84.7371 240.626 84.5094 240.969C84.3955 241.313 84.3386 241.542 84.3386 241.656C84.3386 241.771 84.2247 242 83.997 242.343C83.8831 242.572 83.7692 242.801 83.6554 243.03C83.5415 243.259 83.4276 243.488 83.3138 243.717C82.7444 245.205 82.289 246.407 81.9474 247.323C81.6058 248.239 81.2072 248.926 80.7518 249.384C80.2963 249.842 79.7839 250.128 79.2146 250.243C78.6453 250.357 77.7913 250.357 76.6526 250.243C76.0833 250.128 75.7417 250.071 75.6278 250.071C75.6278 249.956 75.5139 249.728 75.2862 249.384C75.0585 249.041 74.8877 248.869 74.7738 248.869C74.6599 248.754 74.5461 248.525 74.4322 248.182C74.0906 246.923 73.6351 245.835 73.0658 244.919C72.6103 244.003 72.2687 242.973 72.041 241.828C71.8133 241.255 71.5286 240.797 71.187 240.454C70.9593 240.111 70.7316 239.595 70.5038 238.908C70.39 238.336 70.2192 237.821 69.9914 237.363C69.8776 236.79 69.7068 236.218 69.479 235.645C69.1374 234.73 68.682 233.814 68.1126 232.898C67.5433 231.867 67.0309 230.837 66.5754 229.807C66.3477 229.234 66.12 228.719 65.8922 228.261C65.6645 227.803 65.4368 227.288 65.209 226.715C64.8674 225.799 64.412 224.826 63.8426 223.796C63.501 222.995 63.1595 222.136 62.8179 221.22C62.5901 220.19 62.0208 219.045 61.1099 217.785C60.8821 217.556 60.4836 216.812 59.9143 215.553C59.3449 214.293 59.0033 213.549 58.8895 213.32C58.7756 213.091 58.7187 212.862 58.7187 212.633C58.7187 212.404 58.6048 212.175 58.3771 211.946Z" fill="white"/>
<path d="M197.03 155.832C196.915 154.804 196.628 153.434 196.167 151.72C195.707 149.893 195.247 148.579 194.787 147.78C193.291 145.495 191.852 143.953 190.472 143.154C189.206 142.354 187.25 141.669 184.604 141.098C182.417 140.527 180.634 140.527 179.253 141.098C177.872 141.555 176.377 142.526 174.766 144.01C172.234 146.295 170.393 149.036 169.243 152.234C168.898 153.377 168.61 154.29 168.38 154.976C168.15 155.547 167.977 156.118 167.862 156.689C167.747 157.146 167.632 157.66 167.517 158.231C167.402 158.802 167.229 159.545 166.999 160.458C166.884 160.915 166.711 161.315 166.481 161.658C166.366 162 166.251 162.457 166.136 163.028C166.021 163.599 165.906 164.456 165.791 165.598C165.676 166.626 165.618 167.711 165.618 168.854C165.618 169.996 165.618 171.138 165.618 172.28C165.618 173.308 165.618 174.165 165.618 174.85L165.791 184.102C165.791 184.673 165.733 185.187 165.618 185.644C165.618 186.101 165.618 186.558 165.618 187.015C165.618 188.614 165.618 190.67 165.618 193.183C165.733 195.581 165.963 197.523 166.309 199.008C166.654 200.607 166.884 201.749 166.999 202.435C167.229 203.12 167.459 203.748 167.689 204.319C167.92 204.776 168.207 205.29 168.552 205.861C169.013 206.433 169.645 207.403 170.451 208.774C171.026 209.574 171.486 210.259 171.832 210.83C172.292 211.287 172.982 211.801 173.903 212.372C174.363 212.715 175.053 213.172 175.974 213.743C177.009 214.2 177.815 214.542 178.39 214.771C179.541 214.999 180.346 215.228 180.806 215.456C181.382 215.57 182.302 215.342 183.568 214.771C184.258 214.428 184.949 214.028 185.639 213.571C186.329 213 187.02 212.486 187.71 212.029C188.17 211.801 188.631 211.344 189.091 210.659C189.666 209.859 190.184 209.003 190.644 208.089C191.105 207.175 191.507 206.318 191.852 205.519C192.313 204.605 192.658 203.92 192.888 203.463C193.233 202.549 193.578 201.749 193.924 201.064C194.269 200.379 194.614 199.522 194.959 198.494C195.189 197.58 195.419 196.667 195.65 195.753C195.88 194.839 196.11 193.925 196.34 193.012C196.455 192.44 196.513 191.926 196.513 191.47C196.513 190.898 196.628 190.327 196.858 189.756C196.973 189.185 197.03 188.728 197.03 188.386C197.145 188.043 197.26 187.586 197.375 187.015C197.375 185.758 197.433 184.673 197.548 183.76C197.663 182.846 197.721 181.761 197.721 180.504C197.721 179.476 197.663 178.448 197.548 177.42C197.433 176.392 197.375 175.307 197.375 174.165V161.829C197.375 160.801 197.318 159.773 197.203 158.745C197.088 157.717 197.03 156.746 197.03 155.832ZM182.36 117.454C186.272 117.568 189.666 118.139 192.543 119.167C195.419 120.195 198.469 121.68 201.69 123.622C202.726 124.307 203.934 125.278 205.315 126.534C206.696 127.677 207.846 128.705 208.767 129.618C210.032 130.875 211.01 132.017 211.701 133.045C212.506 134.073 213.369 135.33 214.29 136.814C216.246 139.67 217.684 142.868 218.604 146.409C219.64 149.95 220.158 153.377 220.158 156.689C220.158 158.745 220.215 160.801 220.33 162.857C220.561 164.913 220.618 166.969 220.503 169.025C220.503 170.967 220.445 172.794 220.33 174.508C220.33 176.221 220.445 178.048 220.676 179.99C220.906 182.16 220.906 184.102 220.676 185.816C220.561 187.415 220.33 189.299 219.985 191.47C219.755 193.297 219.525 195.068 219.295 196.781C219.065 198.38 218.72 200.093 218.259 201.921C217.569 204.891 216.591 208.146 215.325 211.687C214.175 215.228 212.794 218.255 211.183 220.767C210.262 222.138 209.457 223.509 208.767 224.879C208.191 226.25 207.271 227.564 206.005 228.82C205.775 229.163 205.315 229.62 204.624 230.191C204.049 230.648 203.359 231.219 202.553 231.904C201.863 232.475 201.173 233.046 200.482 233.617C199.792 234.074 199.274 234.417 198.929 234.645C197.203 235.673 195.304 236.587 193.233 237.387C191.277 238.186 189.206 238.872 187.02 239.443C184.949 239.9 182.82 240.128 180.634 240.128C178.563 240.128 176.549 239.785 174.593 239.1C173.327 238.643 172.177 238.3 171.141 238.072C170.221 237.844 169.243 237.558 168.207 237.215C167.287 236.873 166.309 236.416 165.273 235.845C164.238 235.159 163.029 234.188 161.649 232.932C161.073 232.361 160.44 231.847 159.75 231.39C159.175 230.933 158.599 230.419 158.024 229.848C157.449 229.277 156.931 228.763 156.471 228.306C156.011 227.735 155.493 227.164 154.917 226.593C153.652 225.336 152.616 224.137 151.811 222.995C151.005 221.852 150.2 220.596 149.394 219.225C149.049 218.54 148.647 217.855 148.186 217.169C147.726 216.484 147.323 215.742 146.978 214.942C145.943 212.543 145.08 210.088 144.389 207.575C143.814 205.062 143.296 202.492 142.836 199.865C142.146 196.324 141.685 192.726 141.455 189.071C141.34 185.302 141.225 181.589 141.11 177.934C140.995 170.396 141.685 163.485 143.181 157.203C144.677 150.807 147.093 144.239 150.43 137.5C151.811 134.758 153.537 132.188 155.608 129.79C157.679 127.277 159.923 125.164 162.339 123.45C165.561 121.166 168.725 119.567 171.832 118.653C174.938 117.739 178.448 117.34 182.36 117.454Z" fill="white"/>
<path d="M281.163 147.343C281.048 146.307 280.76 144.927 280.3 143.201C279.84 141.361 279.38 140.038 278.919 139.233C277.424 136.932 275.985 135.379 274.605 134.574C273.339 133.768 271.383 133.078 268.736 132.503C266.55 131.928 264.767 131.928 263.386 132.503C262.005 132.963 260.509 133.941 258.899 135.436C256.367 137.737 254.526 140.498 253.376 143.719C253.03 144.87 252.743 145.79 252.513 146.48C252.282 147.055 252.11 147.63 251.995 148.206C251.88 148.666 251.765 149.183 251.65 149.759C251.535 150.334 251.362 151.082 251.132 152.002C251.017 152.462 250.844 152.865 250.614 153.21C250.499 153.555 250.384 154.015 250.269 154.59C250.154 155.165 250.039 156.028 249.924 157.179C249.809 158.214 249.751 159.307 249.751 160.457C249.751 161.607 249.751 162.758 249.751 163.908C249.751 164.944 249.751 165.806 249.751 166.497L249.924 175.815C249.924 176.39 249.866 176.907 249.751 177.368C249.751 177.828 249.751 178.288 249.751 178.748C249.751 180.359 249.751 182.429 249.751 184.96C249.866 187.376 250.096 189.332 250.441 190.827C250.787 192.438 251.017 193.588 251.132 194.278C251.362 194.968 251.592 195.601 251.822 196.176C252.052 196.636 252.34 197.154 252.685 197.729C253.145 198.304 253.778 199.282 254.584 200.663C255.159 201.468 255.619 202.158 255.964 202.733C256.425 203.194 257.115 203.711 258.036 204.286C258.496 204.632 259.186 205.092 260.107 205.667C261.142 206.127 261.948 206.472 262.523 206.702C263.674 206.932 264.479 207.162 264.939 207.392C265.515 207.507 266.435 207.277 267.701 206.702C268.391 206.357 269.082 205.954 269.772 205.494C270.462 204.919 271.153 204.401 271.843 203.941C272.303 203.711 272.764 203.251 273.224 202.561C273.799 201.756 274.317 200.893 274.777 199.972C275.237 199.052 275.64 198.189 275.985 197.384C276.446 196.464 276.791 195.774 277.021 195.313C277.366 194.393 277.711 193.588 278.056 192.898C278.402 192.207 278.747 191.345 279.092 190.309C279.322 189.389 279.552 188.469 279.782 187.548C280.012 186.628 280.243 185.708 280.473 184.788C280.588 184.212 280.645 183.695 280.645 183.235C280.645 182.659 280.76 182.084 280.991 181.509C281.106 180.934 281.163 180.474 281.163 180.129C281.278 179.783 281.393 179.323 281.508 178.748C281.508 177.483 281.566 176.39 281.681 175.469C281.796 174.549 281.853 173.456 281.853 172.191C281.853 171.156 281.796 170.12 281.681 169.085C281.566 168.05 281.508 166.957 281.508 165.806V153.382C281.508 152.347 281.451 151.312 281.336 150.276C281.221 149.241 281.163 148.263 281.163 147.343ZM266.493 108.69C270.405 108.805 273.799 109.38 276.676 110.416C279.552 111.451 282.601 112.947 285.823 114.902C286.859 115.592 288.067 116.57 289.448 117.836C290.828 118.986 291.979 120.021 292.899 120.942C294.165 122.207 295.143 123.357 295.834 124.393C296.639 125.428 297.502 126.694 298.422 128.189C300.379 131.065 301.817 134.286 302.737 137.852C303.773 141.418 304.291 144.87 304.291 148.206C304.291 150.276 304.348 152.347 304.463 154.418C304.693 156.488 304.751 158.559 304.636 160.63C304.636 162.585 304.578 164.426 304.463 166.151C304.463 167.877 304.578 169.718 304.808 171.673C305.039 173.859 305.039 175.815 304.808 177.54C304.693 179.151 304.463 181.049 304.118 183.235C303.888 185.075 303.658 186.858 303.428 188.584C303.198 190.194 302.852 191.92 302.392 193.76C301.702 196.751 300.724 200.03 299.458 203.596C298.307 207.162 296.927 210.211 295.316 212.742C294.395 214.122 293.59 215.503 292.899 216.883C292.324 218.263 291.404 219.586 290.138 220.852C289.908 221.197 289.448 221.657 288.757 222.232C288.182 222.692 287.492 223.268 286.686 223.958C285.996 224.533 285.305 225.108 284.615 225.683C283.925 226.144 283.407 226.489 283.062 226.719C281.336 227.754 279.437 228.674 277.366 229.48C275.41 230.285 273.339 230.975 271.153 231.55C269.082 232.01 266.953 232.241 264.767 232.241C262.696 232.241 260.682 231.895 258.726 231.205C257.46 230.745 256.31 230.4 255.274 230.17C254.354 229.94 253.376 229.652 252.34 229.307C251.419 228.962 250.441 228.502 249.406 227.927C248.37 227.236 247.162 226.259 245.781 224.993C245.206 224.418 244.573 223.9 243.883 223.44C243.308 222.98 242.732 222.462 242.157 221.887C241.582 221.312 241.064 220.794 240.604 220.334C240.143 219.759 239.626 219.184 239.05 218.609C237.785 217.343 236.749 216.135 235.944 214.985C235.138 213.835 234.333 212.569 233.527 211.189C233.182 210.498 232.779 209.808 232.319 209.118C231.859 208.428 231.456 207.68 231.111 206.875C230.075 204.459 229.212 201.986 228.522 199.455C227.947 196.924 227.429 194.336 226.969 191.69C226.278 188.124 225.818 184.5 225.588 180.819C225.473 177.023 225.358 173.284 225.243 169.603C225.128 162.01 225.818 155.05 227.314 148.723C228.81 142.281 231.226 135.667 234.563 128.879C235.944 126.118 237.67 123.53 239.741 121.114C241.812 118.583 244.055 116.455 246.472 114.73C249.694 112.429 252.858 110.818 255.964 109.898C259.071 108.978 262.581 108.575 266.493 108.69Z" fill="white"/>
<path d="M336.881 183.488C336.65 184.527 336.477 186.027 336.362 187.989C336.247 189.951 336.247 191.451 336.362 192.49C336.477 193.644 336.535 194.567 336.535 195.26C336.65 195.952 336.708 196.645 336.708 197.337C336.823 197.914 336.823 198.606 336.708 199.414C336.708 200.107 336.593 201.03 336.362 202.184C336.131 203.454 336.074 205.242 336.189 207.551C336.304 209.743 336.42 211.532 336.535 212.917C336.766 214.879 336.708 216.61 336.362 218.11C336.016 219.611 335.843 221.284 335.843 223.131C335.843 224.054 335.901 224.92 336.016 225.727C336.247 226.535 336.42 227.401 336.535 228.324C336.65 231.094 336.881 233.748 337.227 236.287C337.573 238.711 337.688 241.25 337.573 243.904C337.458 246.097 337.227 247.77 336.881 248.924C336.65 249.963 335.266 250.425 332.729 250.309C330.883 250.309 329.096 250.367 327.366 250.482C325.636 250.482 323.848 250.309 322.003 249.963C321.08 249.732 320.273 249.617 319.581 249.617C318.888 249.617 318.081 249.617 317.158 249.617C315.89 249.732 314.794 249.79 313.871 249.79C313.064 249.79 312.372 249.675 311.795 249.444C311.334 249.213 311.046 248.751 310.93 248.059C310.815 247.251 310.815 246.155 310.93 244.77C311.161 242.577 311.219 240.846 311.103 239.576C310.988 238.191 310.873 236.46 310.757 234.383C310.642 233.46 310.642 232.652 310.757 231.959C310.873 231.267 310.93 230.459 310.93 229.536C311.161 227.805 311.219 226.074 311.103 224.342C311.103 222.496 311.161 220.649 311.276 218.803C311.392 213.61 311.392 208.358 311.276 203.05C311.276 197.741 311.219 192.432 311.103 187.123C311.103 183.43 310.988 179.91 310.757 176.564C310.527 173.101 310.642 169.581 311.103 166.004C311.334 164.157 311.334 162.484 311.103 160.983C310.873 159.483 310.757 157.81 310.757 155.963C310.642 154.348 310.642 152.616 310.757 150.77C310.873 148.923 310.873 147.192 310.757 145.576C310.527 143.615 310.411 141.883 310.411 140.383C310.527 138.767 310.527 136.979 310.411 135.017C310.411 134.555 310.354 133.863 310.238 132.939C310.238 132.016 310.238 131.093 310.238 130.17C310.354 129.131 310.527 128.208 310.757 127.4C310.988 126.592 311.334 126.073 311.795 125.842C312.026 125.726 312.545 125.669 313.352 125.669C314.275 125.553 315.313 125.495 316.466 125.495C317.62 125.38 318.658 125.322 319.581 125.322C320.619 125.322 321.311 125.322 321.657 125.322C323.156 125.322 324.828 125.438 326.674 125.669C328.519 125.899 330.249 126.13 331.864 126.361C333.709 126.592 334.978 127.227 335.67 128.265C336.477 129.189 337.227 130.458 337.919 132.074C342.302 143.038 347.434 153.424 353.316 163.234C354.124 164.619 354.758 165.946 355.219 167.216C355.796 168.485 356.488 169.812 357.295 171.197C358.103 172.351 358.737 173.621 359.198 175.006C359.66 176.39 360.294 177.718 361.102 178.987C361.332 179.333 361.851 180.314 362.659 181.93C363.466 183.546 364.331 185.277 365.254 187.123C366.176 188.97 367.041 190.643 367.849 192.144C368.771 193.529 369.29 194.163 369.406 194.048C369.521 193.932 369.521 192.894 369.406 190.932C369.406 188.97 369.348 186.777 369.233 184.354C369.233 181.815 369.175 179.449 369.06 177.256C368.944 174.948 368.887 173.563 368.887 173.101C368.771 171.716 368.714 170.101 368.714 168.254C368.714 166.408 368.771 164.792 368.887 163.407C369.002 162.484 369.06 161.734 369.06 161.157C369.175 160.464 369.117 159.599 368.887 158.56C368.425 155.79 368.195 152.559 368.195 148.866C368.195 145.173 368.079 141.768 367.849 138.652C367.849 137.844 367.906 137.094 368.022 136.402C368.137 135.594 368.252 134.786 368.368 133.978C368.598 132.362 368.829 130.747 369.06 129.131C369.29 127.515 370.444 126.592 372.52 126.361C373.442 126.361 374.307 126.419 375.115 126.534C375.922 126.534 376.787 126.592 377.71 126.707H393.799C394.607 126.823 395.126 127.284 395.356 128.092C395.702 128.9 395.875 129.823 395.875 130.862C395.875 131.785 395.818 132.766 395.702 133.805C395.587 134.728 395.529 135.478 395.529 136.055V141.076C395.414 141.999 395.414 142.864 395.529 143.672C395.76 144.365 395.875 145.173 395.875 146.096C395.991 147.712 396.048 149.385 396.048 151.116C396.048 152.847 396.048 154.521 396.048 156.136L396.221 171.197C396.221 172.12 396.279 172.986 396.394 173.794C396.51 174.602 396.567 175.467 396.567 176.39C396.683 178.237 396.683 180.083 396.567 181.93C396.452 183.661 396.394 185.45 396.394 187.297C396.394 188.912 396.394 190.701 396.394 192.663C396.51 194.625 396.452 196.414 396.221 198.029C395.991 199.414 395.875 201.088 395.875 203.05C395.991 205.012 396.164 206.743 396.394 208.243C396.51 209.859 396.51 211.59 396.394 213.436C396.394 215.283 396.394 217.014 396.394 218.63C396.279 220.361 396.164 222.092 396.048 223.823C396.048 225.439 396.048 227.112 396.048 228.843C396.164 229.651 396.221 230.517 396.221 231.44C396.221 232.363 396.279 233.229 396.394 234.037C396.625 234.96 396.798 235.826 396.913 236.633C397.029 237.326 397.029 238.191 396.913 239.23C396.913 240.384 396.913 242.058 396.913 244.25C396.913 246.443 396.74 248.001 396.394 248.924C395.818 250.309 394.722 251.117 393.107 251.348C391.377 251.463 389.705 251.521 388.09 251.521C386.591 251.521 384.976 251.406 383.246 251.175C382.323 250.944 381.458 250.829 380.651 250.829C379.959 250.829 379.152 250.771 378.229 250.656C376.384 250.425 374.653 250.425 373.039 250.656C371.539 250.771 370.328 249.963 369.406 248.232C368.137 245.808 366.868 243.096 365.6 240.096C364.331 237.095 363.062 234.268 361.794 231.613C361.217 230.113 360.525 228.843 359.717 227.805C358.91 226.651 358.218 225.266 357.641 223.65C357.065 222.265 356.373 220.938 355.565 219.668C354.873 218.284 354.181 216.956 353.489 215.687C352.682 214.187 352.048 212.744 351.586 211.359C351.125 209.974 350.606 208.474 350.029 206.858C349.107 204.665 348.011 202.646 346.742 200.799C345.473 198.953 344.378 197.048 343.455 195.087C342.532 193.586 341.61 191.682 340.687 189.374C339.764 187.066 338.496 185.104 336.881 183.488Z" fill="white"/>
<path d="M142.129 14.0222C144.449 14.0222 146.827 14.1931 149.264 14.5347C151.816 14.7625 154.079 14.8194 156.051 14.7056C156.747 14.7056 157.501 14.6486 158.313 14.5347C159.125 14.4208 159.88 14.4208 160.576 14.5347C162.2 14.7625 163.128 15.5597 163.36 16.9264C163.708 18.2931 163.882 19.6028 163.882 20.8556C163.882 23.7028 163.766 26.5501 163.534 29.3973C163.418 32.2445 163.244 35.0918 163.012 37.939C162.78 39.3057 162.722 40.6724 162.838 42.039C163.07 43.4057 163.244 44.8293 163.36 46.3099C163.592 48.9293 163.476 51.6627 163.012 54.5099C162.664 57.3572 162.49 60.1475 162.49 62.8808C162.606 66.6392 162.548 70.91 162.316 75.6934C162.2 80.3629 161.91 84.5768 161.446 88.3351C161.33 89.8157 161.156 91.2393 160.924 92.606C160.692 93.9726 160.46 95.3963 160.228 96.8768C159.996 98.4713 159.822 99.838 159.706 100.977C159.59 102.116 159.241 103.425 158.661 104.906C158.313 106.159 157.965 107.412 157.617 108.664C157.269 109.803 156.863 110.999 156.399 112.252C155.703 114.416 154.601 116.58 153.092 118.744C151.584 120.908 150.134 122.901 148.742 124.723C147.001 126.659 145.261 128.367 143.521 129.848C141.781 131.215 139.692 132.41 137.256 133.435C134.355 134.688 131.745 135.599 129.425 136.169C127.104 136.624 124.378 136.795 121.245 136.681C117.997 136.453 115.328 136.055 113.24 135.485C111.152 134.802 108.773 133.606 106.105 131.898C103.784 130.645 101.812 129.278 100.188 127.798C98.5635 126.317 96.9393 124.552 95.315 122.502C93.8068 120.566 92.4726 118.459 91.3124 116.181C90.1522 113.903 89.166 111.626 88.3539 109.348C87.4257 106.956 86.7296 105.191 86.2655 104.052C85.9175 102.913 85.6274 101.945 85.3954 101.148C85.2794 100.35 85.1634 99.4963 85.0473 98.5852C84.9313 97.5602 84.6413 95.9657 84.1772 93.8018C83.4811 90.8407 83.017 87.5379 82.785 83.8934C82.669 80.249 82.6109 76.4906 82.6109 72.6184C82.6109 68.7461 82.6109 64.9308 82.6109 61.1725C82.727 57.3002 82.727 53.7697 82.6109 50.5807C82.6109 49.1002 82.5529 47.6196 82.4369 46.1391C82.3209 44.6585 82.3789 43.2349 82.6109 41.8682C82.727 40.3876 82.843 39.021 82.959 37.7682C83.075 36.5154 83.133 35.1487 83.133 33.6682C83.133 32.9848 83.075 31.8459 82.959 30.2515C82.959 28.5431 82.959 26.8348 82.959 25.1264C83.075 23.3042 83.191 21.6528 83.3071 20.1723C83.4231 18.5778 83.6551 17.5528 84.0032 17.0972C84.8153 16.3 86.0915 15.9583 87.8318 16.0722C89.5721 16.0722 90.9643 16.0722 92.0085 16.0722C93.4007 15.9583 94.6769 15.9014 95.8371 15.9014C97.1133 15.9014 98.3895 15.9014 99.6657 15.9014C100.826 15.9014 102.16 15.8445 103.668 15.7306C105.177 15.6167 106.337 16.0153 107.149 16.9264C108.077 17.9514 108.483 19.3181 108.367 21.0264C108.367 22.7348 108.367 24.2153 108.367 25.4681C108.135 28.657 108.135 31.732 108.367 34.6932C108.599 37.7682 108.657 40.7293 108.541 43.5765C108.425 46.3099 108.309 49.2141 108.193 52.2891C108.077 55.2502 108.019 58.2113 108.019 61.1725C108.135 64.0197 108.251 66.9239 108.367 69.885C108.483 72.2767 108.541 74.042 108.541 75.1809C108.657 76.3198 108.715 77.3448 108.715 78.2559C108.831 79.167 108.947 80.192 109.063 81.3309C109.295 82.4698 109.585 84.1781 109.933 86.4559C110.397 89.531 110.804 92.1504 111.152 94.3143C111.616 96.4782 112.66 98.9838 114.284 101.831C115.676 104.337 117.301 106.216 119.157 107.469C121.129 108.721 123.044 109.177 124.9 108.835C126.872 108.494 128.67 107.241 130.295 105.077C131.919 102.913 133.137 99.7241 133.949 95.5101C134.181 94.2574 134.413 92.8907 134.645 91.4101C134.993 89.9296 135.226 88.506 135.342 87.1393C135.574 84.1782 135.806 81.1601 136.038 78.0851C136.27 75.01 136.328 72.0489 136.212 69.2017C136.096 67.4933 136.038 66.0128 136.038 64.76C136.154 63.3933 136.27 61.8558 136.386 60.1475C136.502 58.553 136.502 57.1294 136.386 55.8766C136.27 54.5099 136.154 53.0294 136.038 51.4349C135.922 49.9544 135.922 48.4738 136.038 46.9932C136.154 45.5127 136.27 44.0321 136.386 42.5515C136.618 39.7043 136.56 36.914 136.212 34.1807C135.98 31.3334 135.98 28.4862 136.212 25.6389C136.212 24.8417 136.212 24.1014 136.212 23.4181C136.328 22.7348 136.328 22.0514 136.212 21.3681C136.212 20.5709 136.154 19.7167 136.038 18.8056C135.922 17.8945 135.98 17.0972 136.212 16.4139C136.56 15.7306 137.14 15.1611 137.952 14.7056C138.88 14.25 140.272 14.0222 142.129 14.0222Z" fill="white"/>
<path d="M33.9006 14.0222C35.053 14.0222 36.3783 14.0222 37.8765 14.0222C39.4899 14.0222 41.1033 14.0795 42.7167 14.1941C44.3301 14.1941 45.8859 14.3086 47.384 14.5377C48.8822 14.7669 50.1498 15.1105 51.187 15.5688C53.8376 16.5998 56.0272 17.6881 57.7559 18.8337C59.4845 19.9793 61.0979 21.6977 62.5961 23.9889C63.8637 26.051 64.9009 27.9985 65.7076 29.8314C66.6296 31.6644 67.2634 33.4973 67.6091 35.3303C68.0701 37.0487 68.3582 38.8816 68.4734 40.8291C68.5887 42.7766 68.5887 44.9533 68.4734 47.359C68.4734 48.9628 67.9549 49.9366 66.9177 50.2803C65.9957 50.624 64.8433 50.7958 63.4604 50.7958C61.847 50.7958 60.3488 50.8531 58.9659 50.9676C57.6982 51.0822 56.3153 51.1968 54.8172 51.3113C53.319 51.4259 51.8785 51.4259 50.4956 51.3113C49.2279 51.0822 48.306 50.1657 47.7297 48.5619C47.2688 47.3017 47.0959 45.9843 47.2111 44.6096C47.3264 43.2349 47.0959 41.8029 46.5197 40.3136C45.5977 37.6787 43.8691 36.0176 41.3338 35.3303C38.7984 34.5284 36.2631 34.7575 33.7277 36.0176C32.4601 36.705 31.5381 37.5069 30.9619 38.4234C30.3857 39.3399 29.9247 40.4855 29.579 41.8602C29.118 43.5786 28.8875 45.0678 28.8875 46.328C29.0028 47.4736 29.2909 48.5046 29.7519 49.4211C30.2128 50.3376 30.8467 51.254 31.6534 52.1705C32.5753 52.9724 33.6125 53.8889 34.7649 54.9199C35.6869 55.7219 36.6088 56.4665 37.5308 57.1538C38.4527 57.7266 39.3746 58.4713 40.2966 59.3878C41.2185 60.1897 42.1405 60.9343 43.0624 61.6217C44.0996 62.1945 45.0792 62.9391 46.0011 63.8556C46.923 64.6575 47.7874 65.4594 48.5941 66.2613C49.516 66.9487 50.4379 67.6933 51.3599 68.4952C51.9361 68.9535 52.6852 69.6408 53.6071 70.5573C54.6443 71.3592 55.6239 72.2184 56.5458 73.1349C57.583 74.0514 58.5626 74.9678 59.4845 75.8843C60.4065 76.6862 61.1555 77.3736 61.7317 77.9464C63.1147 79.3211 64.1518 80.3521 64.8433 81.0395C65.65 81.7269 66.2838 82.3569 66.7448 82.9297C67.2058 83.5025 67.6668 84.2472 68.1277 85.1636C68.7039 85.9655 69.5106 87.3403 70.5478 89.2878C71.585 91.4644 72.3917 93.8702 72.9679 96.505C73.6594 99.4836 74.1203 102.176 74.3508 104.581C74.6966 106.987 74.4085 109.679 73.4865 112.658C72.7951 114.72 71.7579 116.954 70.375 119.36C69.1073 121.651 67.8396 123.656 66.572 125.374C65.0738 127.321 63.2875 128.983 61.2132 130.357C59.254 131.617 57.2949 132.878 55.3358 134.138C52.8004 135.742 50.0922 136.601 47.2111 136.715C44.3301 136.715 41.5066 136.715 38.7408 136.715C37.0122 136.715 35.514 136.715 34.2463 136.715C32.9787 136.601 31.711 136.486 30.4433 136.372C29.2909 136.143 28.0808 135.799 26.8132 135.341C25.6607 134.882 24.2778 134.31 22.6644 133.622C21.512 133.049 20.3596 132.591 19.2071 132.248C18.0547 131.789 16.8447 131.274 15.577 130.701C14.4246 130.128 13.3874 129.555 12.4654 128.983C11.6587 128.295 10.7944 127.493 9.87247 126.577C8.6048 125.546 7.68286 124.744 7.10664 124.171C6.53043 123.484 6.06946 122.911 5.72373 122.453C5.378 121.88 5.03227 121.307 4.68654 120.734C4.45606 120.047 3.99509 119.188 3.30363 118.157C2.9579 117.584 2.61217 117.068 2.26644 116.61C1.92071 116.152 1.57499 115.694 1.22926 115.235C0.307314 113.746 -0.0960357 112.486 0.0192071 111.455C0.249693 110.424 0.768286 109.508 1.57499 108.706C2.38169 107.789 3.36125 107.044 4.51368 106.472C5.78135 105.784 6.93378 105.154 7.97096 104.581C9.12339 104.009 10.1606 103.493 11.0825 103.035C12.1197 102.462 13.2145 101.775 14.3669 100.973C16.3261 99.7127 17.7666 99.1399 18.6885 99.2544C19.7257 99.369 20.4748 99.8272 20.9358 100.629C21.512 101.431 21.973 102.405 22.3187 103.55C22.7797 104.696 23.3559 105.67 24.0473 106.472C24.854 107.388 25.6031 108.305 26.2946 109.221C27.1013 110.023 28.0232 110.71 29.0604 111.283C30.0976 111.856 31.3653 112.314 32.8634 112.658C34.4768 112.887 35.8597 113.116 37.0122 113.345C38.5103 113.574 39.778 113.574 40.8152 113.345C41.8524 113.002 42.9472 112.314 44.0996 111.283C45.3673 110.023 46.2892 108.935 46.8654 108.018C47.4416 106.987 47.7297 105.956 47.7297 104.925C47.845 103.894 47.7297 102.806 47.384 101.66C47.0383 100.4 46.5197 99.0253 45.8282 97.5361C45.1368 96.1613 44.5606 95.1303 44.0996 94.4429C43.6386 93.641 42.7743 92.7818 41.5066 91.8654C40.5847 90.9489 39.7204 90.0897 38.9137 89.2878C38.2222 88.3713 37.4155 87.5121 36.4936 86.7102C35.5716 85.9083 34.5921 85.2209 33.5549 84.6481C32.6329 83.9608 31.711 83.2161 30.789 82.4142C29.8671 81.6123 29.0028 80.8677 28.1961 80.1803C27.3894 79.3784 26.4674 78.6337 25.4303 77.9464C24.9693 77.6027 24.1626 77.0299 23.0102 76.228C21.973 75.3115 20.8205 74.395 19.5529 73.4786C18.4004 72.5621 17.3056 71.7029 16.2684 70.901C15.2313 70.0991 14.5398 69.5263 14.1941 69.1826C12.5807 67.5788 10.9673 65.8604 9.35388 64.0274C7.85572 62.0799 6.47281 60.1324 5.20513 58.1849C3.70698 55.8937 2.9579 53.4307 2.9579 50.7958C2.84266 49.4211 2.72741 47.9891 2.61217 46.4998C2.61217 44.896 2.66979 43.4067 2.78504 42.032C2.78504 41.1155 2.9579 40.0272 3.30363 38.7671C3.7646 37.3923 4.22557 36.0176 4.68654 34.6429C5.26276 33.1536 5.83897 31.7789 6.41518 30.5188C6.9914 29.2586 7.50999 28.2849 7.97096 27.5975C8.43193 26.9102 9.12339 26.1082 10.0453 25.1918C10.9673 24.2753 11.9468 23.4161 12.984 22.6142C14.1365 21.6977 15.2313 20.8958 16.2684 20.2084C17.3056 19.5211 18.2276 18.9483 19.0343 18.49C21.3391 17.2299 23.7016 16.2561 26.1217 15.5688C28.6571 14.7669 31.25 14.2513 33.9006 14.0222Z" fill="white"/>
<path d="M202.795 57.7617C202.564 58.7932 202.391 60.2831 202.276 62.2314C202.161 64.1797 202.161 65.6696 202.276 66.701C202.391 67.8471 202.449 68.7639 202.449 69.4516C202.564 70.1392 202.622 70.8269 202.622 71.5145C202.737 72.0875 202.737 72.7752 202.622 73.5774C202.622 74.2651 202.507 75.1819 202.276 76.328C202.045 77.5887 201.988 79.3651 202.103 81.6572C202.218 83.8347 202.334 85.6111 202.449 86.9864C202.68 88.9347 202.622 90.6538 202.276 92.1437C201.93 93.6336 201.757 95.2954 201.757 97.1291C201.757 98.0459 201.815 98.9055 201.93 99.7077C202.161 100.51 202.334 101.37 202.449 102.286C202.564 105.037 202.795 107.673 203.141 110.194C203.487 112.601 203.602 115.122 203.487 117.758C203.372 119.936 203.141 121.598 202.795 122.744C202.564 123.775 201.18 124.234 198.643 124.119C196.798 124.119 195.01 124.176 193.28 124.291C191.55 124.291 189.762 124.119 187.917 123.775C186.994 123.546 186.187 123.431 185.495 123.431C184.803 123.431 183.995 123.431 183.073 123.431C181.804 123.546 180.708 123.603 179.785 123.603C178.978 123.603 178.286 123.489 177.709 123.259C177.248 123.03 176.96 122.572 176.844 121.884C176.729 121.082 176.729 119.993 176.844 118.618C177.075 116.44 177.133 114.721 177.017 113.461C176.902 112.085 176.787 110.366 176.671 108.303C176.556 107.386 176.556 106.584 176.671 105.896C176.787 105.209 176.844 104.407 176.844 103.49C177.075 101.771 177.133 100.052 177.017 98.3324C177.017 96.4987 177.075 94.665 177.19 92.8313C177.306 87.674 177.306 82.4594 177.19 77.1875C177.19 71.9156 177.133 66.6437 177.017 61.3718C177.017 57.7044 176.902 54.2089 176.671 50.8853C176.441 47.4471 176.556 43.9516 177.017 40.3988C177.248 38.5651 177.248 36.9033 177.017 35.4134C176.787 33.9235 176.671 32.2617 176.671 30.428C176.556 28.8235 176.556 27.1045 176.671 25.2708C176.787 23.437 176.787 21.7179 176.671 20.1135C176.441 18.1651 176.325 16.446 176.325 14.9562C176.441 13.3517 176.441 11.5753 176.325 9.62695C176.325 9.16852 176.268 8.48088 176.152 7.56403C176.152 6.64718 176.152 5.73033 176.152 4.81348C176.268 3.78202 176.441 2.86517 176.671 2.06292C176.902 1.26067 177.248 0.744943 177.709 0.515733C177.94 0.401121 178.459 0.343816 179.266 0.343816C180.189 0.229211 181.227 0.171907 182.38 0.171907C183.534 0.0573023 184.572 0 185.495 0C186.533 0 187.225 0 187.571 0C189.07 0 190.742 0.114606 192.588 0.343816C194.433 0.573033 196.163 0.802246 197.778 1.03146C199.623 1.26067 200.892 1.89101 201.584 2.92247C202.391 3.83932 203.141 5.09999 203.833 6.70448C208.216 17.5921 213.348 27.9067 219.23 37.6483C220.038 39.0235 220.672 40.3415 221.133 41.6022C221.71 42.8629 222.402 44.1808 223.209 45.5561C224.017 46.7022 224.651 47.9628 225.113 49.3381C225.574 50.7134 226.208 52.0314 227.016 53.2921C227.246 53.6359 227.765 54.61 228.573 56.2145C229.38 57.819 230.245 59.5381 231.168 61.3718C232.09 63.2055 232.955 64.8673 233.763 66.3572C234.685 67.7325 235.204 68.3628 235.32 68.2482C235.435 68.1336 235.435 67.1021 235.32 65.1538C235.32 63.2055 235.262 61.028 235.147 58.6213C235.147 56.0999 235.089 53.7505 234.974 51.573C234.858 49.2808 234.801 47.9055 234.801 47.4471C234.685 46.0718 234.628 44.4674 234.628 42.6336C234.628 40.7999 234.685 39.1955 234.801 37.8202C234.916 36.9033 234.974 36.1584 234.974 35.5853C235.089 34.8977 235.031 34.0382 234.801 33.0067C234.339 30.2561 234.109 27.0471 234.109 23.3797C234.109 19.7123 233.993 16.3314 233.763 13.2371C233.763 12.4348 233.82 11.6899 233.936 11.0022C234.051 10.2 234.166 9.39774 234.282 8.5955C234.512 6.991 234.743 5.38651 234.974 3.78202C235.204 2.17753 236.358 1.26067 238.434 1.03146C239.357 1.03146 240.222 1.08876 241.029 1.20336C241.836 1.20336 242.701 1.26067 243.624 1.37528L259.713 1.37528C260.521 1.48989 261.04 1.94831 261.27 2.75055C261.616 3.5528 261.789 4.46966 261.789 5.50112C261.789 6.41797 261.732 7.39213 261.616 8.42359C261.501 9.34044 261.443 10.0854 261.443 10.6584V15.6438C261.328 16.5606 261.328 17.4202 261.443 18.2224C261.674 18.9101 261.789 19.7123 261.789 20.6292C261.905 22.2337 261.962 23.8955 261.962 25.6146C261.962 27.3337 261.962 28.9955 261.962 30.6L262.135 45.5561C262.135 46.473 262.193 47.3325 262.308 48.1348C262.424 48.937 262.481 49.7966 262.481 50.7134C262.597 52.5471 262.597 54.3808 262.481 56.2145C262.366 57.9336 262.308 59.71 262.308 61.5437C262.308 63.1482 262.308 64.9246 262.308 66.8729C262.424 68.8213 262.366 70.5977 262.135 72.2021C261.905 73.5774 261.789 75.2392 261.789 77.1875C261.905 79.1358 262.078 80.8549 262.308 82.3448C262.424 83.9493 262.424 85.6684 262.308 87.5021C262.308 89.3358 262.308 91.0549 262.308 92.6594C262.193 94.3785 262.078 96.0976 261.962 97.8167C261.962 99.4212 261.962 101.083 261.962 102.802C262.078 103.604 262.135 104.464 262.135 105.381C262.135 106.298 262.193 107.157 262.308 107.959C262.539 108.876 262.712 109.736 262.827 110.538C262.943 111.226 262.943 112.085 262.827 113.117C262.827 114.263 262.827 115.925 262.827 118.102C262.827 120.28 262.654 121.827 262.308 122.744C261.732 124.119 260.636 124.921 259.021 125.15C257.291 125.265 255.619 125.322 254.004 125.322C252.505 125.322 250.89 125.208 249.16 124.978C248.237 124.749 247.372 124.635 246.565 124.635C245.873 124.635 245.066 124.577 244.143 124.463C242.298 124.234 240.568 124.234 238.953 124.463C237.453 124.577 236.242 123.775 235.32 122.056C234.051 119.649 232.782 116.956 231.514 113.976C230.245 110.996 228.976 108.189 227.708 105.553C227.131 104.063 226.439 102.802 225.632 101.771C224.824 100.625 224.132 99.2493 223.555 97.6448C222.979 96.2695 222.287 94.9516 221.479 93.6909C220.787 92.3156 220.095 90.9976 219.403 89.737C218.596 88.2471 217.962 86.8145 217.5 85.4392C217.039 84.0639 216.52 82.574 215.943 80.9696C215.021 78.792 213.925 76.7864 212.656 74.9527C211.388 73.119 210.292 71.228 209.369 69.2797C208.446 67.7898 207.524 65.8988 206.601 63.6067C205.678 61.3145 204.41 59.3662 202.795 57.7617Z" fill="white"/>
</svg>
