<svg xmlns="http://www.w3.org/2000/svg" version="1.1" xmlns:xlink="http://www.w3.org/1999/xlink" width="200" height="200"><svg width="200" height="200" viewBox="0 0 200 200" fill="none" xmlns="http://www.w3.org/2000/svg">
<path d="M102.75 157.1C102.562 156.719 102.42 156.434 102.326 156.243C102.232 156.053 102.09 155.72 101.902 155.244C101.807 155.053 101.713 154.816 101.619 154.53C101.525 154.149 101.43 153.864 101.336 153.673C101.242 153.388 101.053 152.96 100.77 152.388C100.487 151.722 100.204 151.056 99.9214 150.39C99.7328 149.628 99.4971 148.914 99.2141 148.248C99.0255 147.582 98.9312 147.106 98.9312 146.821C98.8369 146.63 98.6955 146.345 98.5069 145.964C98.4126 145.583 98.3183 145.298 98.224 145.107C97.9411 144.251 97.7525 143.822 97.6582 143.822C97.6582 143.822 97.5167 143.775 97.2338 143.68C97.0452 143.87 96.9509 144.108 96.9509 144.393C96.9509 144.584 96.9509 144.822 96.9509 145.107L96.668 149.533C96.4794 150.485 96.3851 151.437 96.3851 152.388C96.4794 153.245 96.4794 154.102 96.3851 154.958L96.1022 160.812L96.668 168.807C96.7623 169.283 96.8094 169.949 96.8094 170.806C96.9037 171.567 96.9509 172.376 96.9509 173.233C97.0452 174.089 97.0923 174.946 97.0923 175.802C97.0923 176.564 97.0452 177.135 96.9509 177.516C96.7623 178.372 96.6208 179.039 96.5265 179.514C96.5265 179.895 96.5265 180.181 96.5265 180.371C96.5265 180.561 96.5265 180.752 96.5265 180.942C96.6208 181.133 96.668 181.466 96.668 181.942C96.668 182.227 96.6208 182.513 96.5265 182.798C96.5265 182.988 96.5265 183.179 96.5265 183.369C96.5265 183.845 96.5737 184.321 96.668 184.797C96.7623 185.178 96.7623 185.654 96.668 186.225C96.668 186.415 96.5737 186.891 96.3851 187.652C96.2908 188.319 96.1965 188.699 96.1022 188.794C95.6306 189.175 95.112 189.365 94.5462 189.365C93.9804 189.27 93.4617 189.223 92.9902 189.223C92.0472 189.128 91.4813 189.175 91.2927 189.365C91.1984 189.461 90.8212 189.603 90.1611 189.794C89.9725 189.794 89.4538 189.794 88.6051 189.794C87.7564 189.699 87.1906 189.651 86.9077 189.651C86.1532 189.651 85.6346 189.699 85.3517 189.794C85.0688 189.889 84.5501 189.841 83.7957 189.651C83.0413 189.461 82.4754 189.461 82.0982 189.651C81.721 189.746 81.2024 189.746 80.5422 189.651C80.2593 189.651 79.7878 189.699 79.1277 189.794C78.5619 189.889 77.9489 189.937 77.2888 189.937C76.723 189.937 76.1572 189.889 75.5914 189.794C75.1198 189.603 74.7898 189.27 74.6012 188.794C74.4126 188.414 74.3183 187.938 74.3183 187.367C74.4126 186.7 74.4126 186.129 74.3183 185.654C74.0354 183.179 73.9411 180.847 74.0354 178.658C74.1297 176.374 74.224 173.994 74.3183 171.519C74.3183 169.33 74.2711 167.189 74.1768 165.095C74.1768 162.906 74.2711 160.717 74.4597 158.528C74.554 157.481 74.6012 156.767 74.6012 156.386C74.6012 155.91 74.6012 155.529 74.6012 155.244C74.6012 154.863 74.554 154.482 74.4597 154.102C74.4597 153.626 74.4126 152.817 74.3183 151.675C74.3183 151.104 74.3654 150.58 74.4597 150.104C74.554 149.533 74.554 149.01 74.4597 148.534C74.2711 147.677 74.224 147.106 74.3183 146.821C74.4126 146.535 74.5069 146.012 74.6012 145.25C74.6955 144.679 74.6483 144.108 74.4597 143.537C74.3654 142.871 74.3654 142.3 74.4597 141.824C74.4597 141.538 74.5069 141.3 74.6012 141.11C74.6955 140.919 74.6955 140.634 74.6012 140.253C74.6012 139.872 74.554 139.635 74.4597 139.539C74.4597 139.349 74.5069 139.016 74.6012 138.54C74.7898 137.588 74.8369 136.541 74.7426 135.399C74.6483 134.257 74.6012 133.21 74.6012 132.258C74.6012 131.877 74.6012 131.544 74.6012 131.259C74.6955 130.973 74.6955 130.735 74.6012 130.545C74.6012 130.259 74.6012 129.974 74.6012 129.688C74.6012 129.308 74.554 128.974 74.4597 128.689C74.4597 128.594 74.4597 128.261 74.4597 127.69C74.554 127.023 74.6483 126.357 74.7426 125.691C74.8369 124.929 74.8841 124.216 74.8841 123.549C74.8841 122.883 74.8841 122.407 74.8841 122.122V118.981C74.7898 117.839 74.8369 116.744 75.0255 115.697C75.2141 114.555 75.3556 113.413 75.4499 112.271C75.4499 111.509 75.4499 110.51 75.4499 109.272C75.4499 108.035 75.4499 106.75 75.4499 105.418C75.4499 104.085 75.4028 102.848 75.3084 101.706C75.3084 100.468 75.2613 99.5642 75.167 98.9932C74.9784 97.9462 74.9312 96.8992 75.0255 95.8523C75.1198 94.8053 75.2613 93.7583 75.4499 92.7114C75.4499 92.6162 75.5442 92.0927 75.7328 91.1409C75.7328 90.665 75.78 90.1891 75.8743 89.7132C76.0629 89.4277 76.4401 89.1421 77.0059 88.8566C77.5717 88.5711 77.9961 88.3807 78.279 88.2855C78.6562 88.1904 79.0806 88.2379 79.5521 88.4283C80.1179 88.6187 80.7308 88.6663 81.391 88.5711C81.6739 88.5711 81.9568 88.5235 82.2397 88.4283C82.5226 88.3331 82.8055 88.2855 83.0884 88.2855C83.277 88.2855 83.4656 88.3331 83.6542 88.4283C83.9371 88.4283 84.1729 88.3807 84.3615 88.2855C85.6817 88.0952 86.8605 88.0952 87.8978 88.2855C88.9352 88.3807 90.0196 88.4283 91.1513 88.4283C92.0943 88.4283 92.8016 88.3807 93.2731 88.2855C93.8389 88.0952 94.2633 88 94.5462 88C94.9234 88 95.2063 88.1428 95.3949 88.4283C95.6778 88.6187 95.9607 89.0946 96.2436 89.856C96.4322 90.1415 96.5265 90.3319 96.5265 90.4271C96.6208 90.5222 96.7151 90.7602 96.8094 91.1409C96.9037 91.6168 96.9509 91.9499 96.9509 92.1403C97.0452 92.2355 97.0923 92.3306 97.0923 92.4258C97.1866 92.521 97.2809 92.6638 97.3752 92.8541C97.4695 92.9493 97.611 93.2824 97.7996 93.8535C97.8939 94.0439 97.9882 94.2342 98.0825 94.4246C98.1768 94.6149 98.3183 94.8053 98.5069 94.9956C98.6955 95.3764 98.8841 95.8047 99.0727 96.2806C99.3556 96.6613 99.5914 97.0896 99.78 97.5655C100.251 98.4221 100.487 98.9932 100.487 99.2787C100.582 99.5642 100.723 99.8498 100.912 100.135C101.289 100.706 101.525 101.135 101.619 101.42C101.713 101.706 101.855 102.134 102.043 102.705C102.232 102.991 102.326 103.181 102.326 103.276C102.42 103.371 102.515 103.609 102.609 103.99C102.986 105.037 103.222 105.608 103.316 105.703C103.411 105.703 103.552 106.036 103.741 106.703L105.014 110.986C105.297 111.842 105.674 112.747 106.145 113.698C106.617 114.555 106.947 115.459 107.136 116.411C107.324 116.887 107.513 117.315 107.701 117.696C107.984 118.077 108.22 118.505 108.409 118.981C108.597 119.266 108.644 119.504 108.55 119.695C108.55 119.79 108.644 120.028 108.833 120.408C109.116 120.979 109.305 121.408 109.399 121.693C109.587 121.979 109.682 122.264 109.682 122.55C109.776 122.74 109.87 122.978 109.965 123.264C110.059 123.549 110.2 123.93 110.389 124.406C110.861 125.358 111.285 126.214 111.662 126.976C112.039 127.642 112.464 128.451 112.935 129.403C113.124 129.784 113.312 130.212 113.501 130.688C113.69 131.164 113.878 131.544 114.067 131.83L117.745 139.539C117.933 140.015 118.122 140.491 118.31 140.967C118.499 141.348 118.829 141.538 119.301 141.538C119.395 141.443 119.583 141.11 119.866 140.539C120.244 139.872 120.574 139.159 120.857 138.397C121.234 137.541 121.564 136.779 121.847 136.113C122.224 135.447 122.46 135.018 122.554 134.828C123.026 133.591 123.497 132.449 123.969 131.402C124.534 130.355 125.1 129.26 125.666 128.118C126.043 127.642 126.326 127.119 126.515 126.547C126.798 125.881 127.081 125.31 127.363 124.834C127.458 124.549 127.599 124.12 127.788 123.549C128.071 122.883 128.354 122.217 128.637 121.551C128.919 120.789 129.202 120.075 129.485 119.409C129.768 118.648 130.004 118.124 130.193 117.839C130.57 117.172 130.805 116.601 130.9 116.125C130.994 115.554 131.183 114.983 131.466 114.412C131.937 113.46 132.409 112.271 132.88 110.843C133.446 109.415 133.87 108.178 134.153 107.131C134.248 106.75 134.342 106.465 134.436 106.274C134.53 105.989 134.672 105.703 134.861 105.418C135.049 104.942 135.238 104.228 135.426 103.276C135.709 102.324 136.228 101.325 136.982 100.278C137.265 99.8974 137.407 99.6118 137.407 99.4215C137.407 99.2311 137.501 98.898 137.69 98.4221C137.878 98.1365 138.161 97.6131 138.538 96.8516L139.387 95.1384C139.576 94.8529 139.717 94.6625 139.811 94.5673C139.906 94.377 140.047 94.0439 140.236 93.568C140.424 93.0921 140.566 92.8065 140.66 92.7114C140.754 92.6162 140.849 92.3782 140.943 91.9975C141.132 91.5216 141.226 91.1885 141.226 90.9981C141.226 90.8078 141.367 90.4746 141.65 89.9988C141.933 89.4277 142.169 88.9518 142.358 88.5711C142.64 88.0952 143.301 88 144.338 88.2855C144.809 88.3807 145.47 88.4283 146.318 88.4283C147.261 88.4283 147.969 88.4283 148.44 88.4283C149.477 88.3331 150.232 88.2855 150.703 88.2855C151.175 88.2855 151.599 88.2855 151.976 88.2855C152.354 88.2855 152.731 88.2855 153.108 88.2855C153.485 88.2855 154.051 88.2855 154.806 88.2855C155.088 88.2855 155.418 88.3331 155.796 88.4283C156.173 88.5235 156.55 88.5711 156.927 88.5711C157.399 88.6663 157.729 88.7138 157.917 88.7138C158.106 88.6187 158.436 88.4759 158.908 88.2855C159.473 88.0952 159.804 88.0952 159.898 88.2855C159.992 88.3807 160.275 88.5235 160.747 88.7138C161.312 88.9994 161.69 89.2373 161.878 89.4277C162.067 89.5229 162.161 89.6656 162.161 89.856C162.255 90.0463 162.255 90.2843 162.161 90.5698C162.161 90.8554 162.208 91.2361 162.303 91.712C162.491 92.283 162.585 92.9969 162.585 93.8535C162.68 94.6149 162.821 95.3288 163.01 95.995C163.104 96.6613 163.104 97.3751 163.01 98.1366C162.916 98.8028 162.821 99.4215 162.727 99.9925L162.444 108.987C162.444 109.463 162.491 109.796 162.585 109.986C162.68 110.177 162.68 110.51 162.585 110.986C162.397 112.033 162.491 113.318 162.868 114.84C163.246 116.268 163.34 117.839 163.151 119.552V125.834C163.151 126.214 163.198 126.547 163.293 126.833C163.387 127.119 163.434 127.499 163.434 127.975C163.434 128.451 163.434 128.832 163.434 129.117C163.434 129.403 163.387 129.784 163.293 130.259C163.293 130.735 163.293 131.116 163.293 131.402C163.387 131.687 163.434 132.068 163.434 132.544L163.293 134.542C163.293 135.114 163.246 135.875 163.151 136.827C163.151 137.683 163.246 138.397 163.434 138.968C163.434 139.444 163.387 139.825 163.293 140.11C163.198 140.301 163.246 140.634 163.434 141.11C163.623 141.871 163.623 142.585 163.434 143.251C163.34 143.918 163.34 144.727 163.434 145.678C163.528 146.154 163.576 146.535 163.576 146.821C163.67 147.011 163.67 147.344 163.576 147.82C163.576 148.296 163.528 148.677 163.434 148.962C163.434 149.248 163.528 149.628 163.717 150.104C163.717 150.39 163.67 150.818 163.576 151.389C163.576 151.96 163.528 152.626 163.434 153.388C163.434 154.054 163.387 154.768 163.293 155.529C163.293 156.196 163.34 156.719 163.434 157.1C163.717 159.099 163.764 160.907 163.576 162.525C163.481 164.143 163.528 165.333 163.717 166.094V168.236C163.623 168.712 163.576 169.092 163.576 169.378C163.67 169.663 163.717 170.044 163.717 170.52C163.717 170.901 163.717 171.567 163.717 172.519C163.811 173.375 163.859 174.28 163.859 175.231C163.953 176.183 164 177.135 164 178.087C164 178.943 163.953 179.562 163.859 179.943C163.764 180.704 163.717 181.561 163.717 182.513C163.811 183.369 163.811 184.178 163.717 184.94C163.623 185.701 163.576 186.558 163.576 187.509C163.576 188.366 163.434 188.937 163.151 189.223C162.397 189.889 161.454 190.127 160.322 189.937C159.191 189.746 158.342 189.651 157.776 189.651C157.587 189.651 157.399 189.699 157.21 189.794C157.116 189.794 156.974 189.794 156.786 189.794C156.22 189.699 155.843 189.603 155.654 189.508C155.466 189.413 155.041 189.461 154.381 189.651C153.532 189.841 152.825 189.889 152.259 189.794C151.694 189.699 150.986 189.651 150.138 189.651C149.855 189.651 149.43 189.699 148.864 189.794C148.393 189.794 148.063 189.794 147.874 189.794C147.591 189.699 147.308 189.603 147.026 189.508C146.743 189.318 146.413 189.223 146.035 189.223C145.375 189.128 144.621 189.128 143.772 189.223C143.018 189.318 142.358 189.175 141.792 188.794C141.792 188.699 141.697 188.271 141.509 187.509C141.415 186.748 141.367 186.272 141.367 186.082V180.086C141.179 178.753 141.037 177.801 140.943 177.23C140.849 176.659 140.802 176.183 140.802 175.802C140.802 175.327 140.802 174.803 140.802 174.232C140.896 173.566 140.99 172.519 141.084 171.091C141.179 170.615 141.226 170.139 141.226 169.663C141.32 169.188 141.415 168.759 141.509 168.379C141.509 167.998 141.509 167.617 141.509 167.236C141.509 166.761 141.556 166.285 141.65 165.809C141.839 163.715 141.886 161.811 141.792 160.098C141.792 158.29 141.697 156.338 141.509 154.244C141.415 152.722 141.32 150.818 141.226 148.534C141.132 146.154 140.943 144.298 140.66 142.966C140.189 143.156 139.906 143.537 139.811 144.108C139.717 144.584 139.623 145.06 139.528 145.536L135.709 156.243C135.426 156.719 135.191 157.1 135.002 157.385C134.813 157.576 134.625 158.004 134.436 158.67C134.342 159.146 134.2 159.622 134.012 160.098C133.917 160.479 133.776 160.907 133.587 161.383C133.493 161.573 133.399 161.764 133.305 161.954C133.21 162.144 133.069 162.382 132.88 162.668L132.456 163.953C132.267 164.333 132.031 164.714 131.749 165.095C131.56 165.476 131.371 165.904 131.183 166.38L128.919 171.234C128.731 171.995 128.542 172.471 128.354 172.662C128.165 172.852 127.976 173.233 127.788 173.804C127.599 174.375 127.458 174.851 127.363 175.231C127.175 175.517 127.033 175.707 126.939 175.802C126.939 175.898 126.892 176.088 126.798 176.374C126.515 177.135 126.185 177.849 125.807 178.515C125.43 179.181 125.194 179.752 125.1 180.228C124.912 180.514 124.77 180.704 124.676 180.799C124.676 180.799 124.582 180.942 124.393 181.228C124.299 181.513 124.251 181.704 124.251 181.799C124.251 181.894 124.157 182.084 123.969 182.37C123.874 182.56 123.78 182.751 123.686 182.941C123.591 183.131 123.497 183.322 123.403 183.512C122.931 184.749 122.554 185.749 122.271 186.51C121.988 187.272 121.658 187.843 121.281 188.223C120.904 188.604 120.479 188.842 120.008 188.937C119.536 189.032 118.829 189.032 117.886 188.937C117.415 188.842 117.132 188.794 117.037 188.794C117.037 188.699 116.943 188.509 116.754 188.223C116.566 187.938 116.424 187.795 116.33 187.795C116.236 187.7 116.141 187.509 116.047 187.224C115.764 186.177 115.387 185.273 114.916 184.511C114.538 183.75 114.255 182.893 114.067 181.942C113.878 181.466 113.642 181.085 113.36 180.799C113.171 180.514 112.982 180.086 112.794 179.514C112.699 179.039 112.558 178.61 112.369 178.23C112.275 177.754 112.134 177.278 111.945 176.802C111.662 176.04 111.285 175.279 110.813 174.518C110.342 173.661 109.917 172.804 109.54 171.948C109.352 171.472 109.163 171.044 108.974 170.663C108.786 170.282 108.597 169.854 108.409 169.378C108.126 168.616 107.749 167.807 107.277 166.951C106.994 166.285 106.711 165.571 106.428 164.809C106.24 163.953 105.768 163.001 105.014 161.954C104.825 161.764 104.495 161.145 104.024 160.098C103.552 159.051 103.269 158.432 103.175 158.242C103.081 158.052 103.033 157.861 103.033 157.671C103.033 157.481 102.939 157.29 102.75 157.1Z" fill="black"></path>
<path d="M62.7604 10C63.7041 10 64.7894 10 66.0162 10C67.3373 10 68.6585 10.0476 69.9797 10.1429C71.3009 10.1429 72.5749 10.2381 73.8017 10.4286C75.0285 10.619 76.0665 10.9048 76.9159 11.2857C79.0864 12.1429 80.8794 13.0476 82.2949 14C83.7105 14.9524 85.0317 16.381 86.2585 18.2857C87.2965 20 88.1459 21.6191 88.8065 23.1429C89.5614 24.6667 90.0804 26.1905 90.3636 27.7143C90.741 29.1429 90.977 30.6667 91.0713 32.2857C91.1657 33.9048 91.1657 35.7143 91.0713 37.7143C91.0713 39.0476 90.6467 39.8571 89.7973 40.1429C89.0424 40.4286 88.0987 40.5714 86.9662 40.5714C85.6451 40.5714 84.4183 40.6191 83.2858 40.7143C82.2478 40.8095 81.1153 40.9048 79.8885 41C78.6617 41.0952 77.4821 41.0952 76.3497 41C75.3116 40.8095 74.5566 40.0476 74.0848 38.7143C73.7073 37.6667 73.5657 36.5714 73.6601 35.4286C73.7545 34.2857 73.5657 33.0952 73.0939 31.8571C72.3389 29.6667 70.9234 28.2857 68.8473 27.7143C66.7711 27.0476 64.695 27.2381 62.6189 28.2857C61.5808 28.8571 60.8258 29.5238 60.354 30.2857C59.8821 31.0476 59.5047 32 59.2216 33.1429C58.8441 34.5714 58.6553 35.8095 58.6553 36.8571C58.7497 37.8095 58.9856 38.6667 59.3631 39.4286C59.7406 40.1905 60.2596 40.9524 60.9202 41.7143C61.6752 42.381 62.5245 43.1429 63.4682 44C64.2231 44.6667 64.9781 45.2857 65.7331 45.8571C66.488 46.3333 67.243 46.9524 67.9979 47.7143C68.7529 48.381 69.5079 49 70.2628 49.5714C71.1121 50.0476 71.9143 50.6667 72.6692 51.4286C73.4242 52.0952 74.132 52.7619 74.7926 53.4286C75.5475 54 76.3025 54.6191 77.0574 55.2857C77.5293 55.6667 78.1427 56.2381 78.8976 57C79.747 57.6667 80.5491 58.381 81.3041 59.1429C82.1534 59.9048 82.9555 60.6667 83.7105 61.4286C84.4654 62.0952 85.0788 62.6667 85.5507 63.1429C86.6831 64.2857 87.5325 65.1429 88.0987 65.7143C88.7593 66.2857 89.2783 66.8095 89.6558 67.2857C90.0333 67.7619 90.4107 68.381 90.7882 69.1429C91.2601 69.8095 91.9207 70.9524 92.77 72.5714C93.6193 74.3809 94.2799 76.381 94.7517 78.5714C95.318 81.0476 95.6954 83.2857 95.8842 85.2857C96.1673 87.2857 95.9314 89.5238 95.1764 92C94.6102 93.7143 93.7609 95.5714 92.6284 97.5714C91.5904 99.4762 90.5523 101.143 89.5142 102.571C88.2874 104.19 86.8247 105.571 85.126 106.714C83.5217 107.762 81.9175 108.81 80.3132 109.857C78.237 111.19 76.0194 111.905 73.6601 112C71.3009 112 68.9888 112 66.7239 112C65.3084 112 64.0816 112 63.0435 112C62.0055 111.905 60.9674 111.81 59.9293 111.714C58.9856 111.524 57.9947 111.238 56.9567 110.857C56.013 110.476 54.8805 110 53.5594 109.429C52.6157 108.952 51.672 108.571 50.7283 108.286C49.7846 107.905 48.7937 107.476 47.7556 107C46.8119 106.524 45.9626 106.048 45.2077 105.571C44.5471 105 43.8393 104.333 43.0843 103.571C42.0463 102.714 41.2913 102.048 40.8195 101.571C40.3476 101 39.9701 100.524 39.687 100.143C39.4039 99.6667 39.1208 99.1905 38.8377 98.7143C38.649 98.1429 38.2715 97.4286 37.7053 96.5714C37.4222 96.0952 37.139 95.6667 36.8559 95.2857C36.5728 94.9048 36.2897 94.5238 36.0066 94.1429C35.2517 92.9048 34.9214 91.8571 35.0157 91C35.2045 90.1429 35.6291 89.381 36.2897 88.7143C36.9503 87.9524 37.7524 87.3333 38.6961 86.8571C39.7342 86.2857 40.6779 85.7619 41.5272 85.2857C42.4709 84.8095 43.3203 84.381 44.0752 84C44.9245 83.5238 45.8211 82.9524 46.7648 82.2857C48.369 81.2381 49.5487 80.7619 50.3036 80.8571C51.1529 80.9524 51.7663 81.3333 52.1438 82C52.6157 82.6667 52.9932 83.4762 53.2763 84.4286C53.6537 85.381 54.1256 86.1905 54.6918 86.8571C55.3524 87.6191 55.9658 88.3809 56.532 89.1429C57.1926 89.8095 57.9476 90.381 58.7969 90.8571C59.6462 91.3333 60.6843 91.7143 61.9111 92C63.2323 92.1905 64.3647 92.381 65.3084 92.5714C66.5352 92.7619 67.5733 92.7619 68.4226 92.5714C69.2719 92.2857 70.1684 91.7143 71.1121 90.8571C72.1502 89.8095 72.9052 88.9048 73.377 88.1429C73.8489 87.2857 74.0848 86.4286 74.0848 85.5714C74.1791 84.7143 74.0848 83.8095 73.8017 82.8571C73.5186 81.8095 73.0939 80.6667 72.5277 79.4286C71.9615 78.2857 71.4896 77.4286 71.1121 76.8571C70.7347 76.1905 70.0269 75.4762 68.9888 74.7143C68.2339 73.9524 67.5261 73.2381 66.8655 72.5714C66.2993 71.8095 65.6387 71.0952 64.8837 70.4286C64.1288 69.7619 63.3266 69.1905 62.4773 68.7143C61.7224 68.1429 60.9674 67.5238 60.2124 66.8571C59.4575 66.1905 58.7497 65.5714 58.0891 65C57.4285 64.3333 56.6736 63.7143 55.8242 63.1429C55.4468 62.8571 54.7862 62.381 53.8425 61.7143C52.9932 60.9524 52.0495 60.1905 51.0114 59.4286C50.0677 58.6667 49.1712 57.9524 48.3219 57.2857C47.4725 56.619 46.9063 56.1429 46.6232 55.8571C45.302 54.5238 43.9808 53.0952 42.6597 51.5714C41.4329 49.9524 40.3004 48.3333 39.2624 46.7143C38.0356 44.8095 37.4222 42.7619 37.4222 40.5714C37.3278 39.4286 37.2334 38.2381 37.139 37C37.139 35.6667 37.1862 34.4286 37.2806 33.2857C37.2806 32.5238 37.4222 31.619 37.7053 30.5714C38.0827 29.4286 38.4602 28.2857 38.8377 27.1429C39.3095 25.9048 39.7814 24.7619 40.2532 23.7143C40.7251 22.6667 41.1498 21.8571 41.5272 21.2857C41.9047 20.7143 42.4709 20.0476 43.2259 19.2857C43.9808 18.5238 44.783 17.8095 45.6323 17.1429C46.576 16.381 47.4725 15.7143 48.3219 15.1429C49.1712 14.5714 49.9261 14.0952 50.5867 13.7143C52.4741 12.6667 54.4087 11.8571 56.3905 11.2857C58.4666 10.6191 60.5899 10.1905 62.7604 10Z" fill="black"></path>
</svg><style>@media (prefers-color-scheme: light) { :root { filter: none; } }
@media (prefers-color-scheme: dark) { :root { filter: none; } }
</style></svg>